<svg width="137" height="64" viewBox="0 0 137 64" fill="none" xmlns="http://www.w3.org/2000/svg">
<path d="M84.1994 21.25C84.1994 18.91 84.3794 16.765 84.7394 14.815C85.0994 12.835 85.6994 11.14 86.5394 9.73C87.3794 8.29 88.5494 7.18 90.0494 6.4C91.5494 5.59 93.4244 5.185 95.6744 5.185C97.9544 5.185 99.8294 5.59 101.299 6.4C102.769 7.18 103.924 8.29 104.764 9.73C105.634 11.14 106.234 12.835 106.564 14.815C106.924 16.765 107.104 18.91 107.104 21.25C107.104 23.62 106.924 25.795 106.564 27.775C106.234 29.725 105.634 31.42 104.764 32.86C103.924 34.27 102.769 35.365 101.299 36.145C99.8294 36.925 97.9544 37.315 95.6744 37.315C93.4244 37.315 91.5494 36.925 90.0494 36.145C88.5494 35.365 87.3794 34.27 86.5394 32.86C85.6994 31.42 85.0994 29.725 84.7394 27.775C84.3794 25.795 84.1994 23.62 84.1994 21.25ZM102.559 21.25C102.559 19.63 102.484 18.085 102.334 16.615C102.184 15.145 101.884 13.84 101.434 12.7C101.014 11.56 100.339 10.675 99.4094 10.045C98.4794 9.385 97.2344 9.055 95.6744 9.055C94.1144 9.055 92.8694 9.385 91.9394 10.045C91.0094 10.675 90.3194 11.56 89.8694 12.7C89.4194 13.84 89.1194 15.145 88.9694 16.615C88.8494 18.085 88.7894 19.63 88.7894 21.25C88.7894 22.96 88.8494 24.55 88.9694 26.02C89.1194 27.49 89.4194 28.78 89.8694 29.89C90.3194 31 91.0094 31.87 91.9394 32.5C92.8694 33.13 94.1144 33.445 95.6744 33.445C97.2344 33.445 98.4794 33.13 99.4094 32.5C100.339 31.87 101.014 31 101.434 29.89C101.884 28.78 102.184 27.49 102.334 26.02C102.484 24.55 102.559 22.96 102.559 21.25ZM122.484 5.185C124.704 5.185 126.669 5.665 128.379 6.625C130.119 7.585 131.469 8.905 132.429 10.585C133.419 12.265 133.914 14.155 133.914 16.255C133.914 17.905 133.599 19.555 132.969 21.205C132.339 22.855 131.364 24.535 130.044 26.245L121.854 37H116.994L126.354 24.85L131.529 19.495C130.929 21.625 129.774 23.35 128.064 24.67C126.384 25.99 124.344 26.65 121.944 26.65C119.814 26.65 117.939 26.215 116.319 25.345C114.729 24.445 113.469 23.215 112.539 21.655C111.639 20.065 111.189 18.235 111.189 16.165C111.189 14.035 111.669 12.145 112.629 10.495C113.619 8.845 114.954 7.555 116.634 6.625C118.344 5.665 120.294 5.185 122.484 5.185ZM129.369 16.165C129.369 14.695 129.099 13.435 128.559 12.385C128.019 11.335 127.224 10.525 126.174 9.955C125.154 9.355 123.924 9.055 122.484 9.055C121.014 9.055 119.769 9.355 118.749 9.955C117.759 10.525 117.009 11.335 116.499 12.385C115.989 13.435 115.734 14.695 115.734 16.165C115.734 17.605 115.989 18.85 116.499 19.9C117.009 20.92 117.759 21.7 118.749 22.24C119.769 22.78 121.014 23.05 122.484 23.05C123.924 23.05 125.154 22.78 126.174 22.24C127.224 21.7 128.019 20.92 128.559 19.9C129.099 18.85 129.369 17.605 129.369 16.165ZM85.0762 59.138C84.6622 59.138 84.3096 58.9923 84.0182 58.701C83.7269 58.4097 83.5812 58.057 83.5812 57.643C83.5812 57.2137 83.7269 56.8533 84.0182 56.562C84.3096 56.2707 84.6622 56.125 85.0762 56.125C85.4902 56.125 85.8429 56.2707 86.1342 56.562C86.4256 56.8533 86.5712 57.2137 86.5712 57.643C86.5712 58.057 86.4256 58.4097 86.1342 58.701C85.8429 58.9923 85.4902 59.138 85.0762 59.138ZM85.0762 49.363C84.6622 49.363 84.3096 49.2173 84.0182 48.926C83.7269 48.6347 83.5812 48.282 83.5812 47.868C83.5812 47.4387 83.7269 47.0783 84.0182 46.787C84.3096 46.4957 84.6622 46.35 85.0762 46.35C85.4902 46.35 85.8429 46.4957 86.1342 46.787C86.4256 47.0783 86.5712 47.4387 86.5712 47.868C86.5712 48.282 86.4256 48.6347 86.1342 48.926C85.8429 49.2173 85.4902 49.363 85.0762 49.363ZM89.006 47.27C89.0673 46.304 89.3357 45.4837 89.811 44.809C90.3017 44.1343 90.9457 43.6207 91.743 43.268C92.5403 42.9153 93.4527 42.739 94.48 42.739C95.5687 42.739 96.4887 42.946 97.24 43.36C97.9913 43.774 98.5587 44.326 98.942 45.016C99.3407 45.6907 99.54 46.4267 99.54 47.224C99.54 47.8067 99.4173 48.3433 99.172 48.834C98.9267 49.3093 98.5893 49.7157 98.16 50.053C97.746 50.3903 97.2707 50.628 96.734 50.766V50.881C97.3473 51.0343 97.884 51.2797 98.344 51.617C98.8193 51.939 99.1873 52.3607 99.448 52.882C99.7087 53.388 99.839 54.0013 99.839 54.722C99.839 55.596 99.6397 56.3703 99.241 57.045C98.8423 57.7043 98.2443 58.2257 97.447 58.609C96.665 58.977 95.6913 59.161 94.526 59.161C93.4067 59.161 92.4253 58.9923 91.582 58.655C90.7387 58.3177 90.0717 57.7887 89.581 57.068C89.1057 56.3473 88.8373 55.412 88.776 54.262H90.984C91.0607 55.2127 91.375 55.941 91.927 56.447C92.479 56.9377 93.3453 57.183 94.526 57.183C95.216 57.183 95.7833 57.0757 96.228 56.861C96.6727 56.6463 96.9947 56.3473 97.194 55.964C97.4087 55.5653 97.516 55.09 97.516 54.538C97.516 53.4953 97.1557 52.79 96.435 52.422C95.7297 52.0387 94.6563 51.847 93.215 51.847H92.64V49.892H93.238C94.112 49.8767 94.8403 49.7847 95.423 49.616C96.021 49.4473 96.4657 49.1943 96.757 48.857C97.0637 48.5043 97.217 48.0443 97.217 47.477C97.217 46.7103 96.987 46.0587 96.527 45.522C96.067 44.9853 95.3617 44.717 94.411 44.717C93.767 44.717 93.2227 44.832 92.778 45.062C92.3333 45.2767 91.9807 45.5757 91.72 45.959C91.4593 46.3423 91.2983 46.7793 91.237 47.27H89.006ZM102.27 50.95C102.27 49.754 102.362 48.6577 102.546 47.661C102.73 46.649 103.036 45.7827 103.466 45.062C103.895 44.326 104.493 43.7587 105.26 43.36C106.026 42.946 106.985 42.739 108.135 42.739C109.3 42.739 110.258 42.946 111.01 43.36C111.761 43.7587 112.351 44.326 112.781 45.062C113.225 45.7827 113.532 46.649 113.701 47.661C113.885 48.6577 113.977 49.754 113.977 50.95C113.977 52.1613 113.885 53.273 113.701 54.285C113.532 55.2817 113.225 56.148 112.781 56.884C112.351 57.6047 111.761 58.1643 111.01 58.563C110.258 58.9617 109.3 59.161 108.135 59.161C106.985 59.161 106.026 58.9617 105.26 58.563C104.493 58.1643 103.895 57.6047 103.466 56.884C103.036 56.148 102.73 55.2817 102.546 54.285C102.362 53.273 102.27 52.1613 102.27 50.95ZM111.654 50.95C111.654 50.122 111.615 49.3323 111.539 48.581C111.462 47.8297 111.309 47.1627 111.079 46.58C110.864 45.9973 110.519 45.545 110.044 45.223C109.568 44.8857 108.932 44.717 108.135 44.717C107.337 44.717 106.701 44.8857 106.226 45.223C105.75 45.545 105.398 45.9973 105.168 46.58C104.938 47.1627 104.784 47.8297 104.708 48.581C104.646 49.3323 104.616 50.122 104.616 50.95C104.616 51.824 104.646 52.6367 104.708 53.388C104.784 54.1393 104.938 54.7987 105.168 55.366C105.398 55.9333 105.75 56.378 106.226 56.7C106.701 57.022 107.337 57.183 108.135 57.183C108.932 57.183 109.568 57.022 110.044 56.7C110.519 56.378 110.864 55.9333 111.079 55.366C111.309 54.7987 111.462 54.1393 111.539 53.388C111.615 52.6367 111.654 51.824 111.654 50.95ZM121.951 51.236H121.555L118.675 59H117.931L121.051 50.6H122.443L125.551 59H124.819L121.951 51.236ZM119.311 56.048H124.207V56.684H119.311V56.048ZM127.199 59H126.467V50.6H127.259L130.511 58.004L133.751 50.6H134.543V59H133.811V52.076L130.775 59H130.235L127.199 52.076V59Z" fill="#0A214A"/>
<path d="M63.8008 33.4137H74.7088V35.6817H63.8008V33.4137Z" fill="#0A214A"/>
<path d="M2.96816 22.2534C2.96816 19.9134 3.14816 17.7684 3.50816 15.8184C3.86816 13.8384 4.46816 12.1434 5.30816 10.7334C6.14816 9.29342 7.31816 8.18342 8.81816 7.40342C10.3182 6.59342 12.1932 6.18842 14.4432 6.18842C16.7232 6.18842 18.5982 6.59342 20.0682 7.40342C21.5382 8.18342 22.6932 9.29342 23.5332 10.7334C24.4032 12.1434 25.0032 13.8384 25.3332 15.8184C25.6932 17.7684 25.8732 19.9134 25.8732 22.2534C25.8732 24.6234 25.6932 26.7984 25.3332 28.7784C25.0032 30.7284 24.4032 32.4234 23.5332 33.8634C22.6932 35.2734 21.5382 36.3684 20.0682 37.1484C18.5982 37.9284 16.7232 38.3184 14.4432 38.3184C12.1932 38.3184 10.3182 37.9284 8.81816 37.1484C7.31816 36.3684 6.14816 35.2734 5.30816 33.8634C4.46816 32.4234 3.86816 30.7284 3.50816 28.7784C3.14816 26.7984 2.96816 24.6234 2.96816 22.2534ZM21.3282 22.2534C21.3282 20.6334 21.2532 19.0884 21.1032 17.6184C20.9532 16.1484 20.6532 14.8434 20.2032 13.7034C19.7832 12.5634 19.1082 11.6784 18.1782 11.0484C17.2482 10.3884 16.0032 10.0584 14.4432 10.0584C12.8832 10.0584 11.6382 10.3884 10.7082 11.0484C9.77816 11.6784 9.08816 12.5634 8.63816 13.7034C8.18816 14.8434 7.88816 16.1484 7.73816 17.6184C7.61816 19.0884 7.55816 20.6334 7.55816 22.2534C7.55816 23.9634 7.61816 25.5534 7.73816 27.0234C7.88816 28.4934 8.18816 29.7834 8.63816 30.8934C9.08816 32.0034 9.77816 32.8734 10.7082 33.5034C11.6382 34.1334 12.8832 34.4484 14.4432 34.4484C16.0032 34.4484 17.2482 34.1334 18.1782 33.5034C19.1082 32.8734 19.7832 32.0034 20.2032 30.8934C20.6532 29.7834 20.9532 28.4934 21.1032 27.0234C21.2532 25.5534 21.3282 23.9634 21.3282 22.2534ZM36.2126 21.4434C34.6526 20.8134 33.4226 19.9284 32.5226 18.7884C31.6226 17.6184 31.1726 16.1634 31.1726 14.4234C31.1726 12.8934 31.5776 11.5134 32.3876 10.2834C33.1976 9.05342 34.3826 8.06342 35.9426 7.31342C37.5326 6.56342 39.5276 6.18842 41.9276 6.18842C44.2976 6.18842 46.2776 6.56342 47.8676 7.31342C49.4576 8.06342 50.6426 9.06842 51.4226 10.3284C52.2326 11.5584 52.6376 12.9234 52.6376 14.4234C52.6376 16.0734 52.1726 17.5134 51.2426 18.7434C50.3126 19.9434 49.0976 20.8434 47.5976 21.4434C49.3976 22.0134 50.8226 22.9584 51.8726 24.2784C52.9526 25.5984 53.4926 27.2184 53.4926 29.1384C53.4926 31.0284 52.9976 32.6634 52.0076 34.0434C51.0176 35.3934 49.6526 36.4434 47.9126 37.1934C46.2026 37.9434 44.2076 38.3184 41.9276 38.3184C39.6476 38.3184 37.6376 37.9434 35.8976 37.1934C34.1576 36.4434 32.7926 35.3934 31.8026 34.0434C30.8426 32.6634 30.3626 31.0284 30.3626 29.1384C30.3626 27.2184 30.8876 25.5984 31.9376 24.2784C33.0176 22.9284 34.4426 21.9834 36.2126 21.4434ZM48.0476 14.9184C48.0476 13.2084 47.5076 11.9784 46.4276 11.2284C45.3776 10.4484 43.8776 10.0584 41.9276 10.0584C40.0076 10.0584 38.4926 10.4334 37.3826 11.1834C36.3026 11.9334 35.7626 13.1934 35.7626 14.9634C35.7626 16.4934 36.3176 17.7084 37.4276 18.6084C38.5376 19.4784 40.0376 19.9134 41.9276 19.9134C43.8176 19.9134 45.3026 19.4784 46.3826 18.6084C47.4926 17.7084 48.0476 16.4784 48.0476 14.9184ZM41.9276 23.4234C40.5776 23.4234 39.3626 23.6184 38.2826 24.0084C37.2326 24.3984 36.4076 24.9984 35.8076 25.8084C35.2076 26.6184 34.9076 27.6834 34.9076 29.0034C34.9076 30.7434 35.5076 32.0934 36.7076 33.0534C37.9376 33.9834 39.6776 34.4484 41.9276 34.4484C44.1476 34.4484 45.8726 33.9684 47.1026 33.0084C48.3326 32.0484 48.9476 30.7134 48.9476 29.0034C48.9476 27.7434 48.6476 26.7084 48.0476 25.8984C47.4476 25.0584 46.6226 24.4434 45.5726 24.0534C44.5226 23.6334 43.3076 23.4234 41.9276 23.4234ZM3.86845 60.1414C3.45445 60.1414 3.10178 59.9958 2.81045 59.7044C2.51911 59.4131 2.37345 59.0604 2.37345 58.6464C2.37345 58.2171 2.51911 57.8568 2.81045 57.5654C3.10178 57.2741 3.45445 57.1284 3.86845 57.1284C4.28245 57.1284 4.63511 57.2741 4.92645 57.5654C5.21778 57.8568 5.36345 58.2171 5.36345 58.6464C5.36345 59.0604 5.21778 59.4131 4.92645 59.7044C4.63511 59.9958 4.28245 60.1414 3.86845 60.1414ZM3.86845 50.3664C3.45445 50.3664 3.10178 50.2208 2.81045 49.9294C2.51911 49.6381 2.37345 49.2854 2.37345 48.8714C2.37345 48.4421 2.51911 48.0818 2.81045 47.7904C3.10178 47.4991 3.45445 47.3534 3.86845 47.3534C4.28245 47.3534 4.63511 47.4991 4.92645 47.7904C5.21778 48.0818 5.36345 48.4421 5.36345 48.8714C5.36345 49.2854 5.21778 49.6381 4.92645 49.9294C4.63511 50.2208 4.28245 50.3664 3.86845 50.3664ZM7.79821 51.9534C7.79821 50.7574 7.89021 49.6611 8.07421 48.6644C8.25821 47.6524 8.56488 46.7861 8.99421 46.0654C9.42355 45.3294 10.0215 44.7621 10.7882 44.3634C11.5549 43.9494 12.5132 43.7424 13.6632 43.7424C14.8285 43.7424 15.7869 43.9494 16.5382 44.3634C17.2895 44.7621 17.8799 45.3294 18.3092 46.0654C18.7539 46.7861 19.0605 47.6524 19.2292 48.6644C19.4132 49.6611 19.5052 50.7574 19.5052 51.9534C19.5052 53.1648 19.4132 54.2764 19.2292 55.2884C19.0605 56.2851 18.7539 57.1514 18.3092 57.8874C17.8799 58.6081 17.2895 59.1678 16.5382 59.5664C15.7869 59.9651 14.8285 60.1644 13.6632 60.1644C12.5132 60.1644 11.5549 59.9651 10.7882 59.5664C10.0215 59.1678 9.42355 58.6081 8.99421 57.8874C8.56488 57.1514 8.25821 56.2851 8.07421 55.2884C7.89021 54.2764 7.79821 53.1648 7.79821 51.9534ZM17.1822 51.9534C17.1822 51.1254 17.1439 50.3358 17.0672 49.5844C16.9905 48.8331 16.8372 48.1661 16.6072 47.5834C16.3925 47.0008 16.0475 46.5484 15.5722 46.2264C15.0969 45.8891 14.4605 45.7204 13.6632 45.7204C12.8659 45.7204 12.2295 45.8891 11.7542 46.2264C11.2789 46.5484 10.9262 47.0008 10.6962 47.5834C10.4662 48.1661 10.3129 48.8331 10.2362 49.5844C10.1749 50.3358 10.1442 51.1254 10.1442 51.9534C10.1442 52.8274 10.1749 53.6401 10.2362 54.3914C10.3129 55.1428 10.4662 55.8021 10.6962 56.3694C10.9262 56.9368 11.2789 57.3814 11.7542 57.7034C12.2295 58.0254 12.8659 58.1864 13.6632 58.1864C14.4605 58.1864 15.0969 58.0254 15.5722 57.7034C16.0475 57.3814 16.3925 56.9368 16.6072 56.3694C16.8372 55.8021 16.9905 55.1428 17.0672 54.3914C17.1439 53.6401 17.1822 52.8274 17.1822 51.9534ZM21.9378 51.9534C21.9378 50.7574 22.0298 49.6611 22.2138 48.6644C22.3978 47.6524 22.7045 46.7861 23.1338 46.0654C23.5632 45.3294 24.1612 44.7621 24.9278 44.3634C25.6945 43.9494 26.6528 43.7424 27.8028 43.7424C28.9682 43.7424 29.9265 43.9494 30.6778 44.3634C31.4292 44.7621 32.0195 45.3294 32.4488 46.0654C32.8935 46.7861 33.2002 47.6524 33.3688 48.6644C33.5528 49.6611 33.6448 50.7574 33.6448 51.9534C33.6448 53.1648 33.5528 54.2764 33.3688 55.2884C33.2002 56.2851 32.8935 57.1514 32.4488 57.8874C32.0195 58.6081 31.4292 59.1678 30.6778 59.5664C29.9265 59.9651 28.9682 60.1644 27.8028 60.1644C26.6528 60.1644 25.6945 59.9651 24.9278 59.5664C24.1612 59.1678 23.5632 58.6081 23.1338 57.8874C22.7045 57.1514 22.3978 56.2851 22.2138 55.2884C22.0298 54.2764 21.9378 53.1648 21.9378 51.9534ZM31.3218 51.9534C31.3218 51.1254 31.2835 50.3358 31.2068 49.5844C31.1302 48.8331 30.9768 48.1661 30.7468 47.5834C30.5322 47.0008 30.1872 46.5484 29.7118 46.2264C29.2365 45.8891 28.6002 45.7204 27.8028 45.7204C27.0055 45.7204 26.3692 45.8891 25.8938 46.2264C25.4185 46.5484 25.0658 47.0008 24.8358 47.5834C24.6058 48.1661 24.4525 48.8331 24.3758 49.5844C24.3145 50.3358 24.2838 51.1254 24.2838 51.9534C24.2838 52.8274 24.3145 53.6401 24.3758 54.3914C24.4525 55.1428 24.6058 55.8021 24.8358 56.3694C25.0658 56.9368 25.4185 57.3814 25.8938 57.7034C26.3692 58.0254 27.0055 58.1864 27.8028 58.1864C28.6002 58.1864 29.2365 58.0254 29.7118 57.7034C30.1872 57.3814 30.5322 56.9368 30.7468 56.3694C30.9768 55.8021 31.1302 55.1428 31.2068 54.3914C31.2835 53.6401 31.3218 52.8274 31.3218 51.9534ZM41.6194 52.2394H41.2234L38.3434 60.0034H37.5994L40.7194 51.6034H42.1114L45.2194 60.0034H44.4874L41.6194 52.2394ZM38.9794 57.0514H43.8754V57.6874H38.9794V57.0514ZM46.8676 60.0034H46.1356V51.6034H46.9276L50.1796 59.0074L53.4196 51.6034H54.2116V60.0034H53.4796V53.0794L50.4436 60.0034H49.9036L46.8676 53.0794V60.0034Z" fill="#0A214A"/>
</svg>
