<svg width="137" height="64" viewBox="0 0 137 64" fill="none" xmlns="http://www.w3.org/2000/svg">
<path d="M85.3421 21.25C85.3421 18.91 85.5221 16.765 85.8821 14.815C86.2421 12.835 86.8421 11.14 87.6821 9.73C88.5221 8.29 89.6921 7.18 91.1921 6.4C92.6921 5.59 94.5671 5.185 96.8171 5.185C99.0971 5.185 100.972 5.59 102.442 6.4C103.912 7.18 105.067 8.29 105.907 9.73C106.777 11.14 107.377 12.835 107.707 14.815C108.067 16.765 108.247 18.91 108.247 21.25C108.247 23.62 108.067 25.795 107.707 27.775C107.377 29.725 106.777 31.42 105.907 32.86C105.067 34.27 103.912 35.365 102.442 36.145C100.972 36.925 99.0971 37.315 96.8171 37.315C94.5671 37.315 92.6921 36.925 91.1921 36.145C89.6921 35.365 88.5221 34.27 87.6821 32.86C86.8421 31.42 86.2421 29.725 85.8821 27.775C85.5221 25.795 85.3421 23.62 85.3421 21.25ZM103.702 21.25C103.702 19.63 103.627 18.085 103.477 16.615C103.327 15.145 103.027 13.84 102.577 12.7C102.157 11.56 101.482 10.675 100.552 10.045C99.6221 9.385 98.3771 9.055 96.8171 9.055C95.2571 9.055 94.0121 9.385 93.0821 10.045C92.1521 10.675 91.4621 11.56 91.0121 12.7C90.5621 13.84 90.2621 15.145 90.1121 16.615C89.9921 18.085 89.9321 19.63 89.9321 21.25C89.9321 22.96 89.9921 24.55 90.1121 26.02C90.2621 27.49 90.5621 28.78 91.0121 29.89C91.4621 31 92.1521 31.87 93.0821 32.5C94.0121 33.13 95.2571 33.445 96.8171 33.445C98.3771 33.445 99.6221 33.13 100.552 32.5C101.482 31.87 102.157 31 102.577 29.89C103.027 28.78 103.327 27.49 103.477 26.02C103.627 24.55 103.702 22.96 103.702 21.25ZM133.437 5.5V8.83L120.927 37H116.427L129.072 9.28H111.972V5.5H133.437ZM84.9489 59.138C84.5349 59.138 84.1823 58.9923 83.8909 58.701C83.5996 58.4097 83.4539 58.057 83.4539 57.643C83.4539 57.2137 83.5996 56.8533 83.8909 56.562C84.1823 56.2707 84.5349 56.125 84.9489 56.125C85.3629 56.125 85.7156 56.2707 86.0069 56.562C86.2983 56.8533 86.4439 57.2137 86.4439 57.643C86.4439 58.057 86.2983 58.4097 86.0069 58.701C85.7156 58.9923 85.3629 59.138 84.9489 59.138ZM84.9489 49.363C84.5349 49.363 84.1823 49.2173 83.8909 48.926C83.5996 48.6347 83.4539 48.282 83.4539 47.868C83.4539 47.4387 83.5996 47.0783 83.8909 46.787C84.1823 46.4957 84.5349 46.35 84.9489 46.35C85.3629 46.35 85.7156 46.4957 86.0069 46.787C86.2983 47.0783 86.4439 47.4387 86.4439 47.868C86.4439 48.282 86.2983 48.6347 86.0069 48.926C85.7156 49.2173 85.3629 49.363 84.9489 49.363ZM88.8787 50.95C88.8787 49.754 88.9707 48.6577 89.1547 47.661C89.3387 46.649 89.6454 45.7827 90.0747 45.062C90.504 44.326 91.102 43.7587 91.8687 43.36C92.6354 42.946 93.5937 42.739 94.7437 42.739C95.909 42.739 96.8674 42.946 97.6187 43.36C98.37 43.7587 98.9604 44.326 99.3897 45.062C99.8344 45.7827 100.141 46.649 100.31 47.661C100.494 48.6577 100.586 49.754 100.586 50.95C100.586 52.1613 100.494 53.273 100.31 54.285C100.141 55.2817 99.8344 56.148 99.3897 56.884C98.9604 57.6047 98.37 58.1643 97.6187 58.563C96.8674 58.9617 95.909 59.161 94.7437 59.161C93.5937 59.161 92.6354 58.9617 91.8687 58.563C91.102 58.1643 90.504 57.6047 90.0747 56.884C89.6454 56.148 89.3387 55.2817 89.1547 54.285C88.9707 53.273 88.8787 52.1613 88.8787 50.95ZM98.2627 50.95C98.2627 50.122 98.2244 49.3323 98.1477 48.581C98.071 47.8297 97.9177 47.1627 97.6877 46.58C97.473 45.9973 97.128 45.545 96.6527 45.223C96.1774 44.8857 95.541 44.717 94.7437 44.717C93.9464 44.717 93.31 44.8857 92.8347 45.223C92.3594 45.545 92.0067 45.9973 91.7767 46.58C91.5467 47.1627 91.3934 47.8297 91.3167 48.581C91.2554 49.3323 91.2247 50.122 91.2247 50.95C91.2247 51.824 91.2554 52.6367 91.3167 53.388C91.3934 54.1393 91.5467 54.7987 91.7767 55.366C92.0067 55.9333 92.3594 56.378 92.8347 56.7C93.31 57.022 93.9464 57.183 94.7437 57.183C95.541 57.183 96.1774 57.022 96.6527 56.7C97.128 56.378 97.473 55.9333 97.6877 55.366C97.9177 54.7987 98.071 54.1393 98.1477 53.388C98.2244 52.6367 98.2627 51.824 98.2627 50.95ZM103.018 50.95C103.018 49.754 103.11 48.6577 103.294 47.661C103.478 46.649 103.785 45.7827 104.214 45.062C104.644 44.326 105.242 43.7587 106.008 43.36C106.775 42.946 107.733 42.739 108.883 42.739C110.049 42.739 111.007 42.946 111.758 43.36C112.51 43.7587 113.1 44.326 113.529 45.062C113.974 45.7827 114.281 46.649 114.449 47.661C114.633 48.6577 114.725 49.754 114.725 50.95C114.725 52.1613 114.633 53.273 114.449 54.285C114.281 55.2817 113.974 56.148 113.529 56.884C113.1 57.6047 112.51 58.1643 111.758 58.563C111.007 58.9617 110.049 59.161 108.883 59.161C107.733 59.161 106.775 58.9617 106.008 58.563C105.242 58.1643 104.644 57.6047 104.214 56.884C103.785 56.148 103.478 55.2817 103.294 54.285C103.11 53.273 103.018 52.1613 103.018 50.95ZM112.402 50.95C112.402 50.122 112.364 49.3323 112.287 48.581C112.211 47.8297 112.057 47.1627 111.827 46.58C111.613 45.9973 111.268 45.545 110.792 45.223C110.317 44.8857 109.681 44.717 108.883 44.717C108.086 44.717 107.45 44.8857 106.974 45.223C106.499 45.545 106.146 45.9973 105.916 46.58C105.686 47.1627 105.533 47.8297 105.456 48.581C105.395 49.3323 105.364 50.122 105.364 50.95C105.364 51.824 105.395 52.6367 105.456 53.388C105.533 54.1393 105.686 54.7987 105.916 55.366C106.146 55.9333 106.499 56.378 106.974 56.7C107.45 57.022 108.086 57.183 108.883 57.183C109.681 57.183 110.317 57.022 110.792 56.7C111.268 56.378 111.613 55.9333 111.827 55.366C112.057 54.7987 112.211 54.1393 112.287 53.388C112.364 52.6367 112.402 51.824 112.402 50.95ZM122.448 54.848C122.944 54.848 123.344 54.772 123.648 54.62C123.96 54.468 124.184 54.256 124.32 53.984C124.464 53.712 124.536 53.4 124.536 53.048C124.536 52.48 124.372 52.036 124.044 51.716C123.724 51.396 123.192 51.236 122.448 51.236H120.36V54.848H122.448ZM125.256 53.048C125.256 53.392 125.2 53.716 125.088 54.02C124.976 54.316 124.804 54.576 124.572 54.8C124.34 55.016 124.048 55.188 123.696 55.316C123.344 55.436 122.928 55.496 122.448 55.496H120.36V59H119.628V50.6H122.448C123.112 50.6 123.648 50.708 124.056 50.924C124.464 51.14 124.764 51.432 124.956 51.8C125.156 52.168 125.256 52.584 125.256 53.048ZM127.327 59H126.595V50.6H127.387L130.639 58.004L133.879 50.6H134.671V59H133.939V52.076L130.903 59H130.363L127.327 52.076V59Z" fill="#0A214A"/>
<path d="M63.8009 33.4137H74.7089V35.6817H63.8009V33.4137Z" fill="#0A214A"/>
<path d="M3.42971 22.2534C3.42971 19.9134 3.60971 17.7684 3.96971 15.8184C4.32971 13.8384 4.92971 12.1434 5.76971 10.7334C6.60971 9.29342 7.77971 8.18342 9.27971 7.40342C10.7797 6.59342 12.6547 6.18842 14.9047 6.18842C17.1847 6.18842 19.0597 6.59342 20.5297 7.40342C21.9997 8.18342 23.1547 9.29342 23.9947 10.7334C24.8647 12.1434 25.4647 13.8384 25.7947 15.8184C26.1547 17.7684 26.3347 19.9134 26.3347 22.2534C26.3347 24.6234 26.1547 26.7984 25.7947 28.7784C25.4647 30.7284 24.8647 32.4234 23.9947 33.8634C23.1547 35.2734 21.9997 36.3684 20.5297 37.1484C19.0597 37.9284 17.1847 38.3184 14.9047 38.3184C12.6547 38.3184 10.7797 37.9284 9.27971 37.1484C7.77971 36.3684 6.60971 35.2734 5.76971 33.8634C4.92971 32.4234 4.32971 30.7284 3.96971 28.7784C3.60971 26.7984 3.42971 24.6234 3.42971 22.2534ZM21.7897 22.2534C21.7897 20.6334 21.7147 19.0884 21.5647 17.6184C21.4147 16.1484 21.1147 14.8434 20.6647 13.7034C20.2447 12.5634 19.5697 11.6784 18.6397 11.0484C17.7097 10.3884 16.4647 10.0584 14.9047 10.0584C13.3447 10.0584 12.0997 10.3884 11.1697 11.0484C10.2397 11.6784 9.54971 12.5634 9.09971 13.7034C8.64971 14.8434 8.34971 16.1484 8.19971 17.6184C8.07971 19.0884 8.01971 20.6334 8.01971 22.2534C8.01971 23.9634 8.07971 25.5534 8.19971 27.0234C8.34971 28.4934 8.64971 29.7834 9.09971 30.8934C9.54971 32.0034 10.2397 32.8734 11.1697 33.5034C12.0997 34.1334 13.3447 34.4484 14.9047 34.4484C16.4647 34.4484 17.7097 34.1334 18.6397 33.5034C19.5697 32.8734 20.2447 32.0034 20.6647 30.8934C21.1147 29.7834 21.4147 28.4934 21.5647 27.0234C21.7147 25.5534 21.7897 23.9634 21.7897 22.2534ZM42.0742 38.3184C39.8542 38.3184 37.8742 37.8384 36.1342 36.8784C34.4242 35.9184 33.0892 34.5984 32.1292 32.9184C31.1692 31.2384 30.6892 29.3484 30.6892 27.2484C30.6892 25.5984 30.9892 23.9484 31.5892 22.2984C32.2192 20.6484 33.1942 18.9684 34.5142 17.2584L42.7492 6.50342H47.6092L38.2492 18.6534L33.0292 24.0084C33.6592 21.8784 34.8142 20.1534 36.4942 18.8334C38.2042 17.5134 40.2592 16.8534 42.6592 16.8534C44.7592 16.8534 46.6192 17.3034 48.2392 18.2034C49.8592 19.0734 51.1192 20.3034 52.0192 21.8934C52.9492 23.4534 53.4142 25.2684 53.4142 27.3384C53.4142 29.4384 52.9192 31.3284 51.9292 33.0084C50.9692 34.6584 49.6192 35.9634 47.8792 36.9234C46.1692 37.8534 44.2342 38.3184 42.0742 38.3184ZM35.2342 27.3384C35.2342 28.7784 35.4892 30.0384 35.9992 31.1184C36.5392 32.1684 37.3192 32.9934 38.3392 33.5934C39.3892 34.1634 40.6342 34.4484 42.0742 34.4484C43.5442 34.4484 44.7742 34.1634 45.7642 33.5934C46.7842 32.9934 47.5492 32.1684 48.0592 31.1184C48.5992 30.0384 48.8692 28.7784 48.8692 27.3384C48.8692 25.8684 48.5992 24.6234 48.0592 23.6034C47.5492 22.5834 46.7842 21.8034 45.7642 21.2634C44.7742 20.7234 43.5442 20.4534 42.0742 20.4534C40.6342 20.4534 39.3892 20.7234 38.3392 21.2634C37.3192 21.8034 36.5392 22.5834 35.9992 23.6034C35.4892 24.6234 35.2342 25.8684 35.2342 27.3384ZM4.17912 60.1414C3.76512 60.1414 3.41245 59.9958 3.12112 59.7044C2.82978 59.4131 2.68412 59.0604 2.68412 58.6464C2.68412 58.2171 2.82978 57.8568 3.12112 57.5654C3.41245 57.2741 3.76512 57.1284 4.17912 57.1284C4.59312 57.1284 4.94578 57.2741 5.23712 57.5654C5.52845 57.8568 5.67412 58.2171 5.67412 58.6464C5.67412 59.0604 5.52845 59.4131 5.23712 59.7044C4.94578 59.9958 4.59312 60.1414 4.17912 60.1414ZM4.17912 50.3664C3.76512 50.3664 3.41245 50.2208 3.12112 49.9294C2.82978 49.6381 2.68412 49.2854 2.68412 48.8714C2.68412 48.4421 2.82978 48.0818 3.12112 47.7904C3.41245 47.4991 3.76512 47.3534 4.17912 47.3534C4.59312 47.3534 4.94578 47.4991 5.23712 47.7904C5.52845 48.0818 5.67412 48.4421 5.67412 48.8714C5.67412 49.2854 5.52845 49.6381 5.23712 49.9294C4.94578 50.2208 4.59312 50.3664 4.17912 50.3664ZM8.10888 51.9534C8.10888 50.7574 8.20088 49.6611 8.38488 48.6644C8.56888 47.6524 8.87555 46.7861 9.30488 46.0654C9.73421 45.3294 10.3322 44.7621 11.0989 44.3634C11.8655 43.9494 12.8239 43.7424 13.9739 43.7424C15.1392 43.7424 16.0975 43.9494 16.8489 44.3634C17.6002 44.7621 18.1905 45.3294 18.6199 46.0654C19.0645 46.7861 19.3712 47.6524 19.5399 48.6644C19.7239 49.6611 19.8159 50.7574 19.8159 51.9534C19.8159 53.1648 19.7239 54.2764 19.5399 55.2884C19.3712 56.2851 19.0645 57.1514 18.6199 57.8874C18.1905 58.6081 17.6002 59.1678 16.8489 59.5664C16.0975 59.9651 15.1392 60.1644 13.9739 60.1644C12.8239 60.1644 11.8655 59.9651 11.0989 59.5664C10.3322 59.1678 9.73421 58.6081 9.30488 57.8874C8.87555 57.1514 8.56888 56.2851 8.38488 55.2884C8.20088 54.2764 8.10888 53.1648 8.10888 51.9534ZM17.4929 51.9534C17.4929 51.1254 17.4545 50.3358 17.3779 49.5844C17.3012 48.8331 17.1479 48.1661 16.9179 47.5834C16.7032 47.0008 16.3582 46.5484 15.8829 46.2264C15.4075 45.8891 14.7712 45.7204 13.9739 45.7204C13.1765 45.7204 12.5402 45.8891 12.0649 46.2264C11.5895 46.5484 11.2369 47.0008 11.0069 47.5834C10.7769 48.1661 10.6235 48.8331 10.5469 49.5844C10.4855 50.3358 10.4549 51.1254 10.4549 51.9534C10.4549 52.8274 10.4855 53.6401 10.5469 54.3914C10.6235 55.1428 10.7769 55.8021 11.0069 56.3694C11.2369 56.9368 11.5895 57.3814 12.0649 57.7034C12.5402 58.0254 13.1765 58.1864 13.9739 58.1864C14.7712 58.1864 15.4075 58.0254 15.8829 57.7034C16.3582 57.3814 16.7032 56.9368 16.9179 56.3694C17.1479 55.8021 17.3012 55.1428 17.3779 54.3914C17.4545 53.6401 17.4929 52.8274 17.4929 51.9534ZM22.2485 51.9534C22.2485 50.7574 22.3405 49.6611 22.5245 48.6644C22.7085 47.6524 23.0152 46.7861 23.4445 46.0654C23.8738 45.3294 24.4718 44.7621 25.2385 44.3634C26.0052 43.9494 26.9635 43.7424 28.1135 43.7424C29.2788 43.7424 30.2372 43.9494 30.9885 44.3634C31.7398 44.7621 32.3302 45.3294 32.7595 46.0654C33.2042 46.7861 33.5108 47.6524 33.6795 48.6644C33.8635 49.6611 33.9555 50.7574 33.9555 51.9534C33.9555 53.1648 33.8635 54.2764 33.6795 55.2884C33.5108 56.2851 33.2042 57.1514 32.7595 57.8874C32.3302 58.6081 31.7398 59.1678 30.9885 59.5664C30.2372 59.9651 29.2788 60.1644 28.1135 60.1644C26.9635 60.1644 26.0052 59.9651 25.2385 59.5664C24.4718 59.1678 23.8738 58.6081 23.4445 57.8874C23.0152 57.1514 22.7085 56.2851 22.5245 55.2884C22.3405 54.2764 22.2485 53.1648 22.2485 51.9534ZM31.6325 51.9534C31.6325 51.1254 31.5942 50.3358 31.5175 49.5844C31.4408 48.8331 31.2875 48.1661 31.0575 47.5834C30.8428 47.0008 30.4978 46.5484 30.0225 46.2264C29.5472 45.8891 28.9108 45.7204 28.1135 45.7204C27.3162 45.7204 26.6798 45.8891 26.2045 46.2264C25.7292 46.5484 25.3765 47.0008 25.1465 47.5834C24.9165 48.1661 24.7632 48.8331 24.6865 49.5844C24.6252 50.3358 24.5945 51.1254 24.5945 51.9534C24.5945 52.8274 24.6252 53.6401 24.6865 54.3914C24.7632 55.1428 24.9165 55.8021 25.1465 56.3694C25.3765 56.9368 25.7292 57.3814 26.2045 57.7034C26.6798 58.0254 27.3162 58.1864 28.1135 58.1864C28.9108 58.1864 29.5472 58.0254 30.0225 57.7034C30.4978 57.3814 30.8428 56.9368 31.0575 56.3694C31.2875 55.8021 31.4408 55.1428 31.5175 54.3914C31.5942 53.6401 31.6325 52.8274 31.6325 51.9534ZM41.6781 55.8514C42.1741 55.8514 42.5741 55.7754 42.8781 55.6234C43.1901 55.4714 43.4141 55.2594 43.5501 54.9874C43.6941 54.7154 43.7661 54.4034 43.7661 54.0514C43.7661 53.4834 43.6021 53.0394 43.2741 52.7194C42.9541 52.3994 42.4221 52.2394 41.6781 52.2394H39.5901V55.8514H41.6781ZM44.4861 54.0514C44.4861 54.3954 44.4301 54.7194 44.3181 55.0234C44.2061 55.3194 44.0341 55.5794 43.8021 55.8034C43.5701 56.0194 43.2781 56.1914 42.9261 56.3194C42.5741 56.4394 42.1581 56.4994 41.6781 56.4994H39.5901V60.0034H38.8581V51.6034H41.6781C42.3421 51.6034 42.8781 51.7114 43.2861 51.9274C43.6941 52.1434 43.9941 52.4354 44.1861 52.8034C44.3861 53.1714 44.4861 53.5874 44.4861 54.0514ZM46.5571 60.0034H45.8251V51.6034H46.6171L49.8691 59.0074L53.1091 51.6034H53.9011V60.0034H53.1691V53.0794L50.1331 60.0034H49.5931L46.5571 53.0794V60.0034Z" fill="#0A214A"/>
</svg>
