<svg width="34" height="22" viewBox="0 0 34 22" fill="none" xmlns="http://www.w3.org/2000/svg">
<path fill-rule="evenodd" clip-rule="evenodd" d="M21.5674 8.98305C23.6382 9.61628 24.9156 11.873 24.1853 14.0703L23.2725 16.8168C23.7557 17.8695 24.814 18.5641 25.9986 18.5641H28.5348C29.8671 18.5641 31.0398 17.6854 31.414 16.4068L33.0332 10.8746C33.5953 8.95396 32.1552 7.03186 30.154 7.03186H24.3794C23.0616 7.03186 21.9871 7.86536 21.5674 8.98305Z" fill="#0A214A"/>
<circle cx="27.1258" cy="3.09401" r="3.09401" fill="#0A214A"/>
<path fill-rule="evenodd" clip-rule="evenodd" d="M3.00189 7.03186C1.00072 7.03186 -0.439444 8.95396 0.122682 10.8746L1.74187 16.4068C2.11611 17.6854 3.28879 18.5641 4.62108 18.5641H7.15732C8.21279 18.5641 9.1681 18.0126 9.70558 17.1477L8.68278 14.0703C7.92234 11.7823 9.33877 9.42982 11.5612 8.91304C11.1236 7.83073 10.0666 7.03186 8.7765 7.03186H3.00189Z" fill="#0A214A"/>
<circle cx="5.74831" cy="3.09401" r="3.09401" fill="#0A214A"/>
<path d="M10.8112 14.2498C10.2491 12.3292 11.6893 10.4071 13.6904 10.4071H19.465C21.4662 10.4071 22.9064 12.3292 22.3443 14.2498L20.7251 19.782C20.3508 21.0607 19.1781 21.9393 17.8458 21.9393H15.3096C13.9773 21.9393 12.8046 21.0607 12.4304 19.782L10.8112 14.2498Z" fill="#0A214A"/>
<circle cx="16.4373" cy="6.46938" r="3.09401" fill="#0A214A"/>
</svg>
