<svg width="61" height="40" viewBox="0 0 61 40" fill="none" xmlns="http://www.w3.org/2000/svg">
<path fill-rule="evenodd" clip-rule="evenodd" d="M39.123 16.4256C42.88 17.8645 45.1624 22.0392 43.9188 26.1941L42.5732 30.6896C43.418 32.3299 45.1209 33.3988 47.0179 33.3988H52.0671C54.2876 33.3988 56.2421 31.9343 56.8658 29.8033L59.9591 19.2346C60.8959 16.0336 58.4957 12.8301 55.1604 12.8301H43.9246C41.5953 12.8301 39.722 14.3926 39.123 16.4256Z" fill="#0A214A"/>
<circle cx="49.2916" cy="5.80651" r="5.51843" fill="#0A214A"/>
<path fill-rule="evenodd" clip-rule="evenodd" d="M5.79723 12.8301C2.46194 12.8301 0.0616602 16.0336 0.998538 19.2346L4.09181 29.8032C4.71554 31.9343 6.67001 33.3988 8.8905 33.3988H13.9397C15.8569 33.3988 17.5757 32.3071 18.411 30.6372L17.0811 26.1941C15.8417 22.0533 18.1045 17.8928 21.8389 16.4402C21.2446 14.4001 19.3679 12.8301 17.033 12.8301H5.79723Z" fill="#0A214A"/>
<circle cx="11.1642" cy="5.80651" r="5.51843" fill="#0A214A"/>
<path d="M20.062 25.2546C19.1251 22.0536 21.5254 18.8501 24.8607 18.8501H36.0964C39.4317 18.8501 41.832 22.0536 40.8951 25.2546L37.8018 35.8233C37.1781 37.9544 35.2236 39.4188 33.0031 39.4188H27.9539C25.7335 39.4188 23.779 37.9544 23.1553 35.8233L20.062 25.2546Z" fill="#0A214A"/>
<circle cx="30.2277" cy="11.8265" r="5.51843" fill="#0A214A"/>
</svg>
