<svg width="137" height="64" viewBox="0 0 137 64" fill="none" xmlns="http://www.w3.org/2000/svg">
<path d="M84.4192 21.25C84.4192 18.91 84.5992 16.765 84.9592 14.815C85.3192 12.835 85.9192 11.14 86.7592 9.73C87.5992 8.29 88.7692 7.18 90.2692 6.4C91.7692 5.59 93.6442 5.185 95.8942 5.185C98.1742 5.185 100.049 5.59 101.519 6.4C102.989 7.18 104.144 8.29 104.984 9.73C105.854 11.14 106.454 12.835 106.784 14.815C107.144 16.765 107.324 18.91 107.324 21.25C107.324 23.62 107.144 25.795 106.784 27.775C106.454 29.725 105.854 31.42 104.984 32.86C104.144 34.27 102.989 35.365 101.519 36.145C100.049 36.925 98.1742 37.315 95.8942 37.315C93.6442 37.315 91.7692 36.925 90.2692 36.145C88.7692 35.365 87.5992 34.27 86.7592 32.86C85.9192 31.42 85.3192 29.725 84.9592 27.775C84.5992 25.795 84.4192 23.62 84.4192 21.25ZM102.779 21.25C102.779 19.63 102.704 18.085 102.554 16.615C102.404 15.145 102.104 13.84 101.654 12.7C101.234 11.56 100.559 10.675 99.6292 10.045C98.6992 9.385 97.4542 9.055 95.8942 9.055C94.3342 9.055 93.0892 9.385 92.1592 10.045C91.2292 10.675 90.5392 11.56 90.0892 12.7C89.6392 13.84 89.3392 15.145 89.1892 16.615C89.0692 18.085 89.0092 19.63 89.0092 21.25C89.0092 22.96 89.0692 24.55 89.1892 26.02C89.3392 27.49 89.6392 28.78 90.0892 29.89C90.5392 31 91.2292 31.87 92.1592 32.5C93.0892 33.13 94.3342 33.445 95.8942 33.445C97.4542 33.445 98.6992 33.13 99.6292 32.5C100.559 31.87 101.234 31 101.654 29.89C102.104 28.78 102.404 27.49 102.554 26.02C102.704 24.55 102.779 22.96 102.779 21.25ZM111.679 33.715L120.949 25.075C122.719 23.455 124.114 22.06 125.134 20.89C126.154 19.72 126.889 18.64 127.339 17.65C127.789 16.63 128.014 15.58 128.014 14.5C128.014 12.91 127.549 11.605 126.619 10.585C125.719 9.565 124.249 9.055 122.209 9.055C120.919 9.055 119.824 9.34 118.924 9.91C118.024 10.48 117.334 11.29 116.854 12.34C116.374 13.36 116.119 14.56 116.089 15.94H111.769C111.829 13.54 112.324 11.545 113.254 9.955C114.184 8.365 115.429 7.18 116.989 6.4C118.579 5.59 120.334 5.185 122.254 5.185C124.414 5.185 126.259 5.575 127.789 6.355C129.349 7.135 130.534 8.23 131.344 9.64C132.154 11.02 132.559 12.64 132.559 14.5C132.559 15.85 132.304 17.17 131.794 18.46C131.314 19.72 130.474 21.085 129.274 22.555C128.074 23.995 126.439 25.675 124.369 27.595L118.249 33.22H133.414V37H111.679V33.715ZM85.3869 59.138C84.9729 59.138 84.6202 58.9923 84.3289 58.701C84.0376 58.4097 83.8919 58.057 83.8919 57.643C83.8919 57.2137 84.0376 56.8533 84.3289 56.562C84.6202 56.2707 84.9729 56.125 85.3869 56.125C85.8009 56.125 86.1536 56.2707 86.4449 56.562C86.7362 56.8533 86.8819 57.2137 86.8819 57.643C86.8819 58.057 86.7362 58.4097 86.4449 58.701C86.1536 58.9923 85.8009 59.138 85.3869 59.138ZM85.3869 49.363C84.9729 49.363 84.6202 49.2173 84.3289 48.926C84.0376 48.6347 83.8919 48.282 83.8919 47.868C83.8919 47.4387 84.0376 47.0783 84.3289 46.787C84.6202 46.4957 84.9729 46.35 85.3869 46.35C85.8009 46.35 86.1536 46.4957 86.4449 46.787C86.7362 47.0783 86.8819 47.4387 86.8819 47.868C86.8819 48.282 86.7362 48.6347 86.4449 48.926C86.1536 49.2173 85.8009 49.363 85.3869 49.363ZM89.3167 47.27C89.378 46.304 89.6463 45.4837 90.1217 44.809C90.6123 44.1343 91.2563 43.6207 92.0537 43.268C92.851 42.9153 93.7633 42.739 94.7907 42.739C95.8793 42.739 96.7993 42.946 97.5507 43.36C98.302 43.774 98.8693 44.326 99.2527 45.016C99.6513 45.6907 99.8507 46.4267 99.8507 47.224C99.8507 47.8067 99.728 48.3433 99.4827 48.834C99.2373 49.3093 98.9 49.7157 98.4707 50.053C98.0567 50.3903 97.5813 50.628 97.0447 50.766V50.881C97.658 51.0343 98.1947 51.2797 98.6547 51.617C99.13 51.939 99.498 52.3607 99.7587 52.882C100.019 53.388 100.15 54.0013 100.15 54.722C100.15 55.596 99.9503 56.3703 99.5517 57.045C99.153 57.7043 98.555 58.2257 97.7577 58.609C96.9757 58.977 96.002 59.161 94.8367 59.161C93.7173 59.161 92.736 58.9923 91.8927 58.655C91.0493 58.3177 90.3823 57.7887 89.8917 57.068C89.4163 56.3473 89.148 55.412 89.0867 54.262H91.2947C91.3713 55.2127 91.6857 55.941 92.2377 56.447C92.7897 56.9377 93.656 57.183 94.8367 57.183C95.5267 57.183 96.094 57.0757 96.5387 56.861C96.9833 56.6463 97.3053 56.3473 97.5047 55.964C97.7193 55.5653 97.8267 55.09 97.8267 54.538C97.8267 53.4953 97.4663 52.79 96.7457 52.422C96.0403 52.0387 94.967 51.847 93.5257 51.847H92.9507V49.892H93.5487C94.4227 49.8767 95.151 49.7847 95.7337 49.616C96.3317 49.4473 96.7763 49.1943 97.0677 48.857C97.3743 48.5043 97.5277 48.0443 97.5277 47.477C97.5277 46.7103 97.2977 46.0587 96.8377 45.522C96.3777 44.9853 95.6723 44.717 94.7217 44.717C94.0777 44.717 93.5333 44.832 93.0887 45.062C92.644 45.2767 92.2913 45.5757 92.0307 45.959C91.77 46.3423 91.609 46.7793 91.5477 47.27H89.3167ZM102.58 50.95C102.58 49.754 102.672 48.6577 102.856 47.661C103.04 46.649 103.347 45.7827 103.776 45.062C104.206 44.326 104.804 43.7587 105.57 43.36C106.337 42.946 107.295 42.739 108.445 42.739C109.611 42.739 110.569 42.946 111.32 43.36C112.072 43.7587 112.662 44.326 113.091 45.062C113.536 45.7827 113.843 46.649 114.011 47.661C114.195 48.6577 114.287 49.754 114.287 50.95C114.287 52.1613 114.195 53.273 114.011 54.285C113.843 55.2817 113.536 56.148 113.091 56.884C112.662 57.6047 112.072 58.1643 111.32 58.563C110.569 58.9617 109.611 59.161 108.445 59.161C107.295 59.161 106.337 58.9617 105.57 58.563C104.804 58.1643 104.206 57.6047 103.776 56.884C103.347 56.148 103.04 55.2817 102.856 54.285C102.672 53.273 102.58 52.1613 102.58 50.95ZM111.964 50.95C111.964 50.122 111.926 49.3323 111.849 48.581C111.773 47.8297 111.619 47.1627 111.389 46.58C111.175 45.9973 110.83 45.545 110.354 45.223C109.879 44.8857 109.243 44.717 108.445 44.717C107.648 44.717 107.012 44.8857 106.536 45.223C106.061 45.545 105.708 45.9973 105.478 46.58C105.248 47.1627 105.095 47.8297 105.018 48.581C104.957 49.3323 104.926 50.122 104.926 50.95C104.926 51.824 104.957 52.6367 105.018 53.388C105.095 54.1393 105.248 54.7987 105.478 55.366C105.708 55.9333 106.061 56.378 106.536 56.7C107.012 57.022 107.648 57.183 108.445 57.183C109.243 57.183 109.879 57.022 110.354 56.7C110.83 56.378 111.175 55.9333 111.389 55.366C111.619 54.7987 111.773 54.1393 111.849 53.388C111.926 52.6367 111.964 51.824 111.964 50.95ZM122.01 54.848C122.506 54.848 122.906 54.772 123.21 54.62C123.522 54.468 123.746 54.256 123.882 53.984C124.026 53.712 124.098 53.4 124.098 53.048C124.098 52.48 123.934 52.036 123.606 51.716C123.286 51.396 122.754 51.236 122.01 51.236H119.922V54.848H122.01ZM124.818 53.048C124.818 53.392 124.762 53.716 124.65 54.02C124.538 54.316 124.366 54.576 124.134 54.8C123.902 55.016 123.61 55.188 123.258 55.316C122.906 55.436 122.49 55.496 122.01 55.496H119.922V59H119.19V50.6H122.01C122.674 50.6 123.21 50.708 123.618 50.924C124.026 51.14 124.326 51.432 124.518 51.8C124.718 52.168 124.818 52.584 124.818 53.048ZM126.889 59H126.157V50.6H126.949L130.201 58.004L133.441 50.6H134.233V59H133.501V52.076L130.465 59H129.925L126.889 52.076V59Z" fill="#0A214A"/>
<path d="M63.8009 33.4137H74.7089V35.6817H63.8009V33.4137Z" fill="#0A214A"/>
<path d="M6.8715 22.2534C6.8715 19.9134 7.0515 17.7684 7.4115 15.8184C7.7715 13.8384 8.3715 12.1434 9.2115 10.7334C10.0515 9.29342 11.2215 8.18342 12.7215 7.40342C14.2215 6.59342 16.0965 6.18842 18.3465 6.18842C20.6265 6.18842 22.5015 6.59342 23.9715 7.40342C25.4415 8.18342 26.5965 9.29342 27.4365 10.7334C28.3065 12.1434 28.9065 13.8384 29.2365 15.8184C29.5965 17.7684 29.7765 19.9134 29.7765 22.2534C29.7765 24.6234 29.5965 26.7984 29.2365 28.7784C28.9065 30.7284 28.3065 32.4234 27.4365 33.8634C26.5965 35.2734 25.4415 36.3684 23.9715 37.1484C22.5015 37.9284 20.6265 38.3184 18.3465 38.3184C16.0965 38.3184 14.2215 37.9284 12.7215 37.1484C11.2215 36.3684 10.0515 35.2734 9.2115 33.8634C8.3715 32.4234 7.7715 30.7284 7.4115 28.7784C7.0515 26.7984 6.8715 24.6234 6.8715 22.2534ZM25.2315 22.2534C25.2315 20.6334 25.1565 19.0884 25.0065 17.6184C24.8565 16.1484 24.5565 14.8434 24.1065 13.7034C23.6865 12.5634 23.0115 11.6784 22.0815 11.0484C21.1515 10.3884 19.9065 10.0584 18.3465 10.0584C16.7865 10.0584 15.5415 10.3884 14.6115 11.0484C13.6815 11.6784 12.9915 12.5634 12.5415 13.7034C12.0915 14.8434 11.7915 16.1484 11.6415 17.6184C11.5215 19.0884 11.4615 20.6334 11.4615 22.2534C11.4615 23.9634 11.5215 25.5534 11.6415 27.0234C11.7915 28.4934 12.0915 29.7834 12.5415 30.8934C12.9915 32.0034 13.6815 32.8734 14.6115 33.5034C15.5415 34.1334 16.7865 34.4484 18.3465 34.4484C19.9065 34.4484 21.1515 34.1334 22.0815 33.5034C23.0115 32.8734 23.6865 32.0034 24.1065 30.8934C24.5565 29.7834 24.8565 28.4934 25.0065 27.0234C25.1565 25.5534 25.2315 23.9634 25.2315 22.2534ZM44.076 10.2834H39.801V6.50342H48.576V38.0034H44.076V10.2834ZM4.17912 60.1414C3.76512 60.1414 3.41245 59.9958 3.12112 59.7044C2.82978 59.4131 2.68412 59.0604 2.68412 58.6464C2.68412 58.2171 2.82978 57.8568 3.12112 57.5654C3.41245 57.2741 3.76512 57.1284 4.17912 57.1284C4.59312 57.1284 4.94578 57.2741 5.23712 57.5654C5.52845 57.8568 5.67412 58.2171 5.67412 58.6464C5.67412 59.0604 5.52845 59.4131 5.23712 59.7044C4.94578 59.9958 4.59312 60.1414 4.17912 60.1414ZM4.17912 50.3664C3.76512 50.3664 3.41245 50.2208 3.12112 49.9294C2.82978 49.6381 2.68412 49.2854 2.68412 48.8714C2.68412 48.4421 2.82978 48.0818 3.12112 47.7904C3.41245 47.4991 3.76512 47.3534 4.17912 47.3534C4.59312 47.3534 4.94578 47.4991 5.23712 47.7904C5.52845 48.0818 5.67412 48.4421 5.67412 48.8714C5.67412 49.2854 5.52845 49.6381 5.23712 49.9294C4.94578 50.2208 4.59312 50.3664 4.17912 50.3664ZM8.10888 51.9534C8.10888 50.7574 8.20088 49.6611 8.38488 48.6644C8.56888 47.6524 8.87555 46.7861 9.30488 46.0654C9.73421 45.3294 10.3322 44.7621 11.0989 44.3634C11.8655 43.9494 12.8239 43.7424 13.9739 43.7424C15.1392 43.7424 16.0975 43.9494 16.8489 44.3634C17.6002 44.7621 18.1905 45.3294 18.6199 46.0654C19.0645 46.7861 19.3712 47.6524 19.5399 48.6644C19.7239 49.6611 19.8159 50.7574 19.8159 51.9534C19.8159 53.1648 19.7239 54.2764 19.5399 55.2884C19.3712 56.2851 19.0645 57.1514 18.6199 57.8874C18.1905 58.6081 17.6002 59.1678 16.8489 59.5664C16.0975 59.9651 15.1392 60.1644 13.9739 60.1644C12.8239 60.1644 11.8655 59.9651 11.0989 59.5664C10.3322 59.1678 9.73421 58.6081 9.30488 57.8874C8.87555 57.1514 8.56888 56.2851 8.38488 55.2884C8.20088 54.2764 8.10888 53.1648 8.10888 51.9534ZM17.4929 51.9534C17.4929 51.1254 17.4545 50.3358 17.3779 49.5844C17.3012 48.8331 17.1479 48.1661 16.9179 47.5834C16.7032 47.0008 16.3582 46.5484 15.8829 46.2264C15.4075 45.8891 14.7712 45.7204 13.9739 45.7204C13.1765 45.7204 12.5402 45.8891 12.0649 46.2264C11.5895 46.5484 11.2369 47.0008 11.0069 47.5834C10.7769 48.1661 10.6235 48.8331 10.5469 49.5844C10.4855 50.3358 10.4549 51.1254 10.4549 51.9534C10.4549 52.8274 10.4855 53.6401 10.5469 54.3914C10.6235 55.1428 10.7769 55.8021 11.0069 56.3694C11.2369 56.9368 11.5895 57.3814 12.0649 57.7034C12.5402 58.0254 13.1765 58.1864 13.9739 58.1864C14.7712 58.1864 15.4075 58.0254 15.8829 57.7034C16.3582 57.3814 16.7032 56.9368 16.9179 56.3694C17.1479 55.8021 17.3012 55.1428 17.3779 54.3914C17.4545 53.6401 17.4929 52.8274 17.4929 51.9534ZM22.2485 51.9534C22.2485 50.7574 22.3405 49.6611 22.5245 48.6644C22.7085 47.6524 23.0152 46.7861 23.4445 46.0654C23.8738 45.3294 24.4718 44.7621 25.2385 44.3634C26.0052 43.9494 26.9635 43.7424 28.1135 43.7424C29.2788 43.7424 30.2372 43.9494 30.9885 44.3634C31.7398 44.7621 32.3302 45.3294 32.7595 46.0654C33.2042 46.7861 33.5108 47.6524 33.6795 48.6644C33.8635 49.6611 33.9555 50.7574 33.9555 51.9534C33.9555 53.1648 33.8635 54.2764 33.6795 55.2884C33.5108 56.2851 33.2042 57.1514 32.7595 57.8874C32.3302 58.6081 31.7398 59.1678 30.9885 59.5664C30.2372 59.9651 29.2788 60.1644 28.1135 60.1644C26.9635 60.1644 26.0052 59.9651 25.2385 59.5664C24.4718 59.1678 23.8738 58.6081 23.4445 57.8874C23.0152 57.1514 22.7085 56.2851 22.5245 55.2884C22.3405 54.2764 22.2485 53.1648 22.2485 51.9534ZM31.6325 51.9534C31.6325 51.1254 31.5942 50.3358 31.5175 49.5844C31.4408 48.8331 31.2875 48.1661 31.0575 47.5834C30.8428 47.0008 30.4978 46.5484 30.0225 46.2264C29.5472 45.8891 28.9108 45.7204 28.1135 45.7204C27.3162 45.7204 26.6798 45.8891 26.2045 46.2264C25.7292 46.5484 25.3765 47.0008 25.1465 47.5834C24.9165 48.1661 24.7632 48.8331 24.6865 49.5844C24.6252 50.3358 24.5945 51.1254 24.5945 51.9534C24.5945 52.8274 24.6252 53.6401 24.6865 54.3914C24.7632 55.1428 24.9165 55.8021 25.1465 56.3694C25.3765 56.9368 25.7292 57.3814 26.2045 57.7034C26.6798 58.0254 27.3162 58.1864 28.1135 58.1864C28.9108 58.1864 29.5472 58.0254 30.0225 57.7034C30.4978 57.3814 30.8428 56.9368 31.0575 56.3694C31.2875 55.8021 31.4408 55.1428 31.5175 54.3914C31.5942 53.6401 31.6325 52.8274 31.6325 51.9534ZM41.6781 55.8514C42.1741 55.8514 42.5741 55.7754 42.8781 55.6234C43.1901 55.4714 43.4141 55.2594 43.5501 54.9874C43.6941 54.7154 43.7661 54.4034 43.7661 54.0514C43.7661 53.4834 43.6021 53.0394 43.2741 52.7194C42.9541 52.3994 42.4221 52.2394 41.6781 52.2394H39.5901V55.8514H41.6781ZM44.4861 54.0514C44.4861 54.3954 44.4301 54.7194 44.3181 55.0234C44.2061 55.3194 44.0341 55.5794 43.8021 55.8034C43.5701 56.0194 43.2781 56.1914 42.9261 56.3194C42.5741 56.4394 42.1581 56.4994 41.6781 56.4994H39.5901V60.0034H38.8581V51.6034H41.6781C42.3421 51.6034 42.8781 51.7114 43.2861 51.9274C43.6941 52.1434 43.9941 52.4354 44.1861 52.8034C44.3861 53.1714 44.4861 53.5874 44.4861 54.0514ZM46.5571 60.0034H45.8251V51.6034H46.6171L49.8691 59.0074L53.1091 51.6034H53.9011V60.0034H53.1691V53.0794L50.1331 60.0034H49.5931L46.5571 53.0794V60.0034Z" fill="#0A214A"/>
</svg>
