<svg width="136" height="64" viewBox="0 0 136 64" fill="none" xmlns="http://www.w3.org/2000/svg">
<path d="M82.4842 21.25C82.4842 18.91 82.6642 16.765 83.0242 14.815C83.3842 12.835 83.9842 11.14 84.8242 9.73C85.6642 8.29 86.8342 7.18 88.3342 6.4C89.8342 5.59 91.7092 5.185 93.9592 5.185C96.2392 5.185 98.1142 5.59 99.5842 6.4C101.054 7.18 102.209 8.29 103.049 9.73C103.919 11.14 104.519 12.835 104.849 14.815C105.209 16.765 105.389 18.91 105.389 21.25C105.389 23.62 105.209 25.795 104.849 27.775C104.519 29.725 103.919 31.42 103.049 32.86C102.209 34.27 101.054 35.365 99.5842 36.145C98.1142 36.925 96.2392 37.315 93.9592 37.315C91.7092 37.315 89.8342 36.925 88.3342 36.145C86.8342 35.365 85.6642 34.27 84.8242 32.86C83.9842 31.42 83.3842 29.725 83.0242 27.775C82.6642 25.795 82.4842 23.62 82.4842 21.25ZM100.844 21.25C100.844 19.63 100.769 18.085 100.619 16.615C100.469 15.145 100.169 13.84 99.7192 12.7C99.2992 11.56 98.6242 10.675 97.6942 10.045C96.7642 9.385 95.5192 9.055 93.9592 9.055C92.3992 9.055 91.1542 9.385 90.2242 10.045C89.2942 10.675 88.6042 11.56 88.1542 12.7C87.7042 13.84 87.4042 15.145 87.2542 16.615C87.1342 18.085 87.0742 19.63 87.0742 21.25C87.0742 22.96 87.1342 24.55 87.2542 26.02C87.4042 27.49 87.7042 28.78 88.1542 29.89C88.6042 31 89.2942 31.87 90.2242 32.5C91.1542 33.13 92.3992 33.445 93.9592 33.445C95.5192 33.445 96.7642 33.13 97.6942 32.5C98.6242 31.87 99.2992 31 99.7192 29.89C100.169 28.78 100.469 27.49 100.619 26.02C100.769 24.55 100.844 22.96 100.844 21.25ZM130.534 5.5V9.28H115.324V18.685C115.954 17.815 116.869 17.11 118.069 16.57C119.269 16.03 120.634 15.76 122.164 15.76C124.114 15.76 125.749 16.09 127.069 16.75C128.389 17.41 129.454 18.265 130.264 19.315C131.104 20.365 131.704 21.505 132.064 22.735C132.454 23.935 132.649 25.09 132.649 26.2C132.649 28.24 132.214 30.1 131.344 31.78C130.504 33.46 129.244 34.81 127.564 35.83C125.884 36.82 123.844 37.315 121.444 37.315C119.284 37.315 117.394 36.94 115.774 36.19C114.184 35.41 112.909 34.36 111.949 33.04C111.019 31.69 110.419 30.16 110.149 28.45H114.514C114.904 30.01 115.699 31.24 116.899 32.14C118.129 33.01 119.659 33.445 121.489 33.445C122.989 33.445 124.234 33.145 125.224 32.545C126.214 31.945 126.934 31.12 127.384 30.07C127.864 28.99 128.104 27.73 128.104 26.29C128.104 24.19 127.534 22.555 126.394 21.385C125.254 20.215 123.634 19.63 121.534 19.63C119.944 19.63 118.594 20.005 117.484 20.755C116.374 21.505 115.579 22.525 115.099 23.815H110.869V5.5H130.534ZM83.5852 59.138C83.1712 59.138 82.8185 58.9923 82.5272 58.701C82.2359 58.4097 82.0902 58.057 82.0902 57.643C82.0902 57.2137 82.2359 56.8533 82.5272 56.562C82.8185 56.2707 83.1712 56.125 83.5852 56.125C83.9992 56.125 84.3519 56.2707 84.6432 56.562C84.9345 56.8533 85.0802 57.2137 85.0802 57.643C85.0802 58.057 84.9345 58.4097 84.6432 58.701C84.3519 58.9923 83.9992 59.138 83.5852 59.138ZM83.5852 49.363C83.1712 49.363 82.8185 49.2173 82.5272 48.926C82.2359 48.6347 82.0902 48.282 82.0902 47.868C82.0902 47.4387 82.2359 47.0783 82.5272 46.787C82.8185 46.4957 83.1712 46.35 83.5852 46.35C83.9992 46.35 84.3519 46.4957 84.6432 46.787C84.9345 47.0783 85.0802 47.4387 85.0802 47.868C85.0802 48.282 84.9345 48.6347 84.6432 48.926C84.3519 49.2173 83.9992 49.363 83.5852 49.363ZM87.515 50.95C87.515 49.754 87.607 48.6577 87.791 47.661C87.975 46.649 88.2816 45.7827 88.711 45.062C89.1403 44.326 89.7383 43.7587 90.505 43.36C91.2716 42.946 92.23 42.739 93.38 42.739C94.5453 42.739 95.5036 42.946 96.255 43.36C97.0063 43.7587 97.5966 44.326 98.026 45.062C98.4706 45.7827 98.7773 46.649 98.946 47.661C99.13 48.6577 99.222 49.754 99.222 50.95C99.222 52.1613 99.13 53.273 98.946 54.285C98.7773 55.2817 98.4706 56.148 98.026 56.884C97.5966 57.6047 97.0063 58.1643 96.255 58.563C95.5036 58.9617 94.5453 59.161 93.38 59.161C92.23 59.161 91.2716 58.9617 90.505 58.563C89.7383 58.1643 89.1403 57.6047 88.711 56.884C88.2816 56.148 87.975 55.2817 87.791 54.285C87.607 53.273 87.515 52.1613 87.515 50.95ZM96.899 50.95C96.899 50.122 96.8606 49.3323 96.784 48.581C96.7073 47.8297 96.554 47.1627 96.324 46.58C96.1093 45.9973 95.7643 45.545 95.289 45.223C94.8136 44.8857 94.1773 44.717 93.38 44.717C92.5826 44.717 91.9463 44.8857 91.471 45.223C90.9956 45.545 90.643 45.9973 90.413 46.58C90.183 47.1627 90.0296 47.8297 89.953 48.581C89.8916 49.3323 89.861 50.122 89.861 50.95C89.861 51.824 89.8916 52.6367 89.953 53.388C90.0296 54.1393 90.183 54.7987 90.413 55.366C90.643 55.9333 90.9956 56.378 91.471 56.7C91.9463 57.022 92.5826 57.183 93.38 57.183C94.1773 57.183 94.8136 57.022 95.289 56.7C95.7643 56.378 96.1093 55.9333 96.324 55.366C96.554 54.7987 96.7073 54.1393 96.784 53.388C96.8606 52.6367 96.899 51.824 96.899 50.95ZM101.655 50.95C101.655 49.754 101.747 48.6577 101.931 47.661C102.115 46.649 102.421 45.7827 102.851 45.062C103.28 44.326 103.878 43.7587 104.645 43.36C105.411 42.946 106.37 42.739 107.52 42.739C108.685 42.739 109.643 42.946 110.395 43.36C111.146 43.7587 111.736 44.326 112.166 45.062C112.61 45.7827 112.917 46.649 113.086 47.661C113.27 48.6577 113.362 49.754 113.362 50.95C113.362 52.1613 113.27 53.273 113.086 54.285C112.917 55.2817 112.61 56.148 112.166 56.884C111.736 57.6047 111.146 58.1643 110.395 58.563C109.643 58.9617 108.685 59.161 107.52 59.161C106.37 59.161 105.411 58.9617 104.645 58.563C103.878 58.1643 103.28 57.6047 102.851 56.884C102.421 56.148 102.115 55.2817 101.931 54.285C101.747 53.273 101.655 52.1613 101.655 50.95ZM111.039 50.95C111.039 50.122 111 49.3323 110.924 48.581C110.847 47.8297 110.694 47.1627 110.464 46.58C110.249 45.9973 109.904 45.545 109.429 45.223C108.953 44.8857 108.317 44.717 107.52 44.717C106.722 44.717 106.086 44.8857 105.611 45.223C105.135 45.545 104.783 45.9973 104.553 46.58C104.323 47.1627 104.169 47.8297 104.093 48.581C104.031 49.3323 104.001 50.122 104.001 50.95C104.001 51.824 104.031 52.6367 104.093 53.388C104.169 54.1393 104.323 54.7987 104.553 55.366C104.783 55.9333 105.135 56.378 105.611 56.7C106.086 57.022 106.722 57.183 107.52 57.183C108.317 57.183 108.953 57.022 109.429 56.7C109.904 56.378 110.249 55.9333 110.464 55.366C110.694 54.7987 110.847 54.1393 110.924 53.388C111 52.6367 111.039 51.824 111.039 50.95ZM121.084 54.848C121.58 54.848 121.98 54.772 122.284 54.62C122.596 54.468 122.82 54.256 122.956 53.984C123.1 53.712 123.172 53.4 123.172 53.048C123.172 52.48 123.008 52.036 122.68 51.716C122.36 51.396 121.828 51.236 121.084 51.236H118.996V54.848H121.084ZM123.892 53.048C123.892 53.392 123.836 53.716 123.724 54.02C123.612 54.316 123.44 54.576 123.208 54.8C122.976 55.016 122.684 55.188 122.332 55.316C121.98 55.436 121.564 55.496 121.084 55.496H118.996V59H118.264V50.6H121.084C121.748 50.6 122.284 50.708 122.692 50.924C123.1 51.14 123.4 51.432 123.592 51.8C123.792 52.168 123.892 52.584 123.892 53.048ZM125.963 59H125.231V50.6H126.023L129.275 58.004L132.515 50.6H133.307V59H132.575V52.076L129.539 59H128.999L125.963 52.076V59Z" fill="#0A214A"/>
<path d="M63.8008 33.4137H74.7088V35.6817H63.8008V33.4137Z" fill="#0A214A"/>
<path d="M3.67128 22.2534C3.67128 19.9134 3.85128 17.7684 4.21128 15.8184C4.57128 13.8384 5.17128 12.1434 6.01128 10.7334C6.85128 9.29342 8.02128 8.18342 9.52128 7.40342C11.0213 6.59342 12.8963 6.18842 15.1463 6.18842C17.4263 6.18842 19.3013 6.59342 20.7713 7.40342C22.2413 8.18342 23.3963 9.29342 24.2363 10.7334C25.1063 12.1434 25.7063 13.8384 26.0363 15.8184C26.3963 17.7684 26.5763 19.9134 26.5763 22.2534C26.5763 24.6234 26.3963 26.7984 26.0363 28.7784C25.7063 30.7284 25.1063 32.4234 24.2363 33.8634C23.3963 35.2734 22.2413 36.3684 20.7713 37.1484C19.3013 37.9284 17.4263 38.3184 15.1463 38.3184C12.8963 38.3184 11.0213 37.9284 9.52128 37.1484C8.02128 36.3684 6.85128 35.2734 6.01128 33.8634C5.17128 32.4234 4.57128 30.7284 4.21128 28.7784C3.85128 26.7984 3.67128 24.6234 3.67128 22.2534ZM22.0313 22.2534C22.0313 20.6334 21.9563 19.0884 21.8063 17.6184C21.6563 16.1484 21.3563 14.8434 20.9063 13.7034C20.4863 12.5634 19.8113 11.6784 18.8813 11.0484C17.9513 10.3884 16.7063 10.0584 15.1463 10.0584C13.5863 10.0584 12.3413 10.3884 11.4113 11.0484C10.4813 11.6784 9.79128 12.5634 9.34128 13.7034C8.89128 14.8434 8.59128 16.1484 8.44128 17.6184C8.32128 19.0884 8.26128 20.6334 8.26128 22.2534C8.26128 23.9634 8.32128 25.5534 8.44128 27.0234C8.59128 28.4934 8.89128 29.7834 9.34128 30.8934C9.79128 32.0034 10.4813 32.8734 11.4113 33.5034C12.3413 34.1334 13.5863 34.4484 15.1463 34.4484C16.7063 34.4484 17.9513 34.1334 18.8813 33.5034C19.8113 32.8734 20.4863 32.0034 20.9063 30.8934C21.3563 29.7834 21.6563 28.4934 21.8063 27.0234C21.9563 25.5534 22.0313 23.9634 22.0313 22.2534ZM31.3357 15.0534C31.4557 13.1634 31.9807 11.5584 32.9107 10.2384C33.8707 8.91842 35.1307 7.91342 36.6907 7.22342C38.2507 6.53342 40.0357 6.18842 42.0457 6.18842C44.1757 6.18842 45.9757 6.59342 47.4457 7.40342C48.9157 8.21342 50.0257 9.29342 50.7757 10.6434C51.5557 11.9634 51.9457 13.4034 51.9457 14.9634C51.9457 16.1034 51.7057 17.1534 51.2257 18.1134C50.7457 19.0434 50.0857 19.8384 49.2457 20.4984C48.4357 21.1584 47.5057 21.6234 46.4557 21.8934V22.1184C47.6557 22.4184 48.7057 22.8984 49.6057 23.5584C50.5357 24.1884 51.2557 25.0134 51.7657 26.0334C52.2757 27.0234 52.5307 28.2234 52.5307 29.6334C52.5307 31.3434 52.1407 32.8584 51.3607 34.1784C50.5807 35.4684 49.4107 36.4884 47.8507 37.2384C46.3207 37.9584 44.4157 38.3184 42.1357 38.3184C39.9457 38.3184 38.0257 37.9884 36.3757 37.3284C34.7257 36.6684 33.4207 35.6334 32.4607 34.2234C31.5307 32.8134 31.0057 30.9834 30.8857 28.7334H35.2057C35.3557 30.5934 35.9707 32.0184 37.0507 33.0084C38.1307 33.9684 39.8257 34.4484 42.1357 34.4484C43.4857 34.4484 44.5957 34.2384 45.4657 33.8184C46.3357 33.3984 46.9657 32.8134 47.3557 32.0634C47.7757 31.2834 47.9857 30.3534 47.9857 29.2734C47.9857 27.2334 47.2807 25.8534 45.8707 25.1334C44.4907 24.3834 42.3907 24.0084 39.5707 24.0084H38.4457V20.1834H39.6157C41.3257 20.1534 42.7507 19.9734 43.8907 19.6434C45.0607 19.3134 45.9307 18.8184 46.5007 18.1584C47.1007 17.4684 47.4007 16.5684 47.4007 15.4584C47.4007 13.9584 46.9507 12.6834 46.0507 11.6334C45.1507 10.5834 43.7707 10.0584 41.9107 10.0584C40.6507 10.0584 39.5857 10.2834 38.7157 10.7334C37.8457 11.1534 37.1557 11.7384 36.6457 12.4884C36.1357 13.2384 35.8207 14.0934 35.7007 15.0534H31.3357ZM4.17899 60.1414C3.76499 60.1414 3.41233 59.9958 3.12099 59.7044C2.82966 59.4131 2.68399 59.0604 2.68399 58.6464C2.68399 58.2171 2.82966 57.8568 3.12099 57.5654C3.41233 57.2741 3.76499 57.1284 4.17899 57.1284C4.59299 57.1284 4.94566 57.2741 5.23699 57.5654C5.52833 57.8568 5.67399 58.2171 5.67399 58.6464C5.67399 59.0604 5.52833 59.4131 5.23699 59.7044C4.94566 59.9958 4.59299 60.1414 4.17899 60.1414ZM4.17899 50.3664C3.76499 50.3664 3.41233 50.2208 3.12099 49.9294C2.82966 49.6381 2.68399 49.2854 2.68399 48.8714C2.68399 48.4421 2.82966 48.0818 3.12099 47.7904C3.41233 47.4991 3.76499 47.3534 4.17899 47.3534C4.59299 47.3534 4.94566 47.4991 5.23699 47.7904C5.52833 48.0818 5.67399 48.4421 5.67399 48.8714C5.67399 49.2854 5.52833 49.6381 5.23699 49.9294C4.94566 50.2208 4.59299 50.3664 4.17899 50.3664ZM8.10876 51.9534C8.10876 50.7574 8.20076 49.6611 8.38476 48.6644C8.56876 47.6524 8.87543 46.7861 9.30476 46.0654C9.73409 45.3294 10.3321 44.7621 11.0988 44.3634C11.8654 43.9494 12.8238 43.7424 13.9738 43.7424C15.1391 43.7424 16.0974 43.9494 16.8488 44.3634C17.6001 44.7621 18.1904 45.3294 18.6198 46.0654C19.0644 46.7861 19.3711 47.6524 19.5398 48.6644C19.7238 49.6611 19.8158 50.7574 19.8158 51.9534C19.8158 53.1648 19.7238 54.2764 19.5398 55.2884C19.3711 56.2851 19.0644 57.1514 18.6198 57.8874C18.1904 58.6081 17.6001 59.1678 16.8488 59.5664C16.0974 59.9651 15.1391 60.1644 13.9738 60.1644C12.8238 60.1644 11.8654 59.9651 11.0988 59.5664C10.3321 59.1678 9.73409 58.6081 9.30476 57.8874C8.87543 57.1514 8.56876 56.2851 8.38476 55.2884C8.20076 54.2764 8.10876 53.1648 8.10876 51.9534ZM17.4928 51.9534C17.4928 51.1254 17.4544 50.3358 17.3778 49.5844C17.3011 48.8331 17.1478 48.1661 16.9178 47.5834C16.7031 47.0008 16.3581 46.5484 15.8828 46.2264C15.4074 45.8891 14.7711 45.7204 13.9738 45.7204C13.1764 45.7204 12.5401 45.8891 12.0648 46.2264C11.5894 46.5484 11.2368 47.0008 11.0068 47.5834C10.7768 48.1661 10.6234 48.8331 10.5468 49.5844C10.4854 50.3358 10.4548 51.1254 10.4548 51.9534C10.4548 52.8274 10.4854 53.6401 10.5468 54.3914C10.6234 55.1428 10.7768 55.8021 11.0068 56.3694C11.2368 56.9368 11.5894 57.3814 12.0648 57.7034C12.5401 58.0254 13.1764 58.1864 13.9738 58.1864C14.7711 58.1864 15.4074 58.0254 15.8828 57.7034C16.3581 57.3814 16.7031 56.9368 16.9178 56.3694C17.1478 55.8021 17.3011 55.1428 17.3778 54.3914C17.4544 53.6401 17.4928 52.8274 17.4928 51.9534ZM22.2484 51.9534C22.2484 50.7574 22.3404 49.6611 22.5244 48.6644C22.7084 47.6524 23.015 46.7861 23.4444 46.0654C23.8737 45.3294 24.4717 44.7621 25.2384 44.3634C26.005 43.9494 26.9634 43.7424 28.1134 43.7424C29.2787 43.7424 30.237 43.9494 30.9884 44.3634C31.7397 44.7621 32.33 45.3294 32.7594 46.0654C33.204 46.7861 33.5107 47.6524 33.6794 48.6644C33.8634 49.6611 33.9554 50.7574 33.9554 51.9534C33.9554 53.1648 33.8634 54.2764 33.6794 55.2884C33.5107 56.2851 33.204 57.1514 32.7594 57.8874C32.33 58.6081 31.7397 59.1678 30.9884 59.5664C30.237 59.9651 29.2787 60.1644 28.1134 60.1644C26.9634 60.1644 26.005 59.9651 25.2384 59.5664C24.4717 59.1678 23.8737 58.6081 23.4444 57.8874C23.015 57.1514 22.7084 56.2851 22.5244 55.2884C22.3404 54.2764 22.2484 53.1648 22.2484 51.9534ZM31.6324 51.9534C31.6324 51.1254 31.594 50.3358 31.5174 49.5844C31.4407 48.8331 31.2874 48.1661 31.0574 47.5834C30.8427 47.0008 30.4977 46.5484 30.0224 46.2264C29.547 45.8891 28.9107 45.7204 28.1134 45.7204C27.316 45.7204 26.6797 45.8891 26.2044 46.2264C25.729 46.5484 25.3764 47.0008 25.1464 47.5834C24.9164 48.1661 24.763 48.8331 24.6864 49.5844C24.625 50.3358 24.5944 51.1254 24.5944 51.9534C24.5944 52.8274 24.625 53.6401 24.6864 54.3914C24.763 55.1428 24.9164 55.8021 25.1464 56.3694C25.3764 56.9368 25.729 57.3814 26.2044 57.7034C26.6797 58.0254 27.316 58.1864 28.1134 58.1864C28.9107 58.1864 29.547 58.0254 30.0224 57.7034C30.4977 57.3814 30.8427 56.9368 31.0574 56.3694C31.2874 55.8021 31.4407 55.1428 31.5174 54.3914C31.594 53.6401 31.6324 52.8274 31.6324 51.9534ZM41.678 55.8514C42.174 55.8514 42.574 55.7754 42.878 55.6234C43.19 55.4714 43.414 55.2594 43.55 54.9874C43.694 54.7154 43.766 54.4034 43.766 54.0514C43.766 53.4834 43.602 53.0394 43.274 52.7194C42.954 52.3994 42.422 52.2394 41.678 52.2394H39.59V55.8514H41.678ZM44.486 54.0514C44.486 54.3954 44.43 54.7194 44.318 55.0234C44.206 55.3194 44.034 55.5794 43.802 55.8034C43.57 56.0194 43.278 56.1914 42.926 56.3194C42.574 56.4394 42.158 56.4994 41.678 56.4994H39.59V60.0034H38.858V51.6034H41.678C42.342 51.6034 42.878 51.7114 43.286 51.9274C43.694 52.1434 43.994 52.4354 44.186 52.8034C44.386 53.1714 44.486 53.5874 44.486 54.0514ZM46.557 60.0034H45.825V51.6034H46.617L49.869 59.0074L53.109 51.6034H53.901V60.0034H53.169V53.0794L50.133 60.0034H49.593L46.557 53.0794V60.0034Z" fill="#0A214A"/>
</svg>
