<svg width="137" height="64" viewBox="0 0 137 64" fill="none" xmlns="http://www.w3.org/2000/svg">
<path d="M84.1994 21.25C84.1994 18.91 84.3794 16.765 84.7394 14.815C85.0994 12.835 85.6994 11.14 86.5394 9.73C87.3794 8.29 88.5494 7.18 90.0494 6.4C91.5494 5.59 93.4244 5.185 95.6744 5.185C97.9544 5.185 99.8294 5.59 101.299 6.4C102.769 7.18 103.924 8.29 104.764 9.73C105.634 11.14 106.234 12.835 106.564 14.815C106.924 16.765 107.104 18.91 107.104 21.25C107.104 23.62 106.924 25.795 106.564 27.775C106.234 29.725 105.634 31.42 104.764 32.86C103.924 34.27 102.769 35.365 101.299 36.145C99.8294 36.925 97.9544 37.315 95.6744 37.315C93.4244 37.315 91.5494 36.925 90.0494 36.145C88.5494 35.365 87.3794 34.27 86.5394 32.86C85.6994 31.42 85.0994 29.725 84.7394 27.775C84.3794 25.795 84.1994 23.62 84.1994 21.25ZM102.559 21.25C102.559 19.63 102.484 18.085 102.334 16.615C102.184 15.145 101.884 13.84 101.434 12.7C101.014 11.56 100.339 10.675 99.4094 10.045C98.4794 9.385 97.2344 9.055 95.6744 9.055C94.1144 9.055 92.8694 9.385 91.9394 10.045C91.0094 10.675 90.3194 11.56 89.8694 12.7C89.4194 13.84 89.1194 15.145 88.9694 16.615C88.8494 18.085 88.7894 19.63 88.7894 21.25C88.7894 22.96 88.8494 24.55 88.9694 26.02C89.1194 27.49 89.4194 28.78 89.8694 29.89C90.3194 31 91.0094 31.87 91.9394 32.5C92.8694 33.13 94.1144 33.445 95.6744 33.445C97.2344 33.445 98.4794 33.13 99.4094 32.5C100.339 31.87 101.014 31 101.434 29.89C101.884 28.78 102.184 27.49 102.334 26.02C102.484 24.55 102.559 22.96 102.559 21.25ZM122.844 37.315C120.624 37.315 118.644 36.835 116.904 35.875C115.194 34.915 113.859 33.595 112.899 31.915C111.939 30.235 111.459 28.345 111.459 26.245C111.459 24.595 111.759 22.945 112.359 21.295C112.989 19.645 113.964 17.965 115.284 16.255L123.519 5.5H128.379L119.019 17.65L113.799 23.005C114.429 20.875 115.584 19.15 117.264 17.83C118.974 16.51 121.029 15.85 123.429 15.85C125.529 15.85 127.389 16.3 129.009 17.2C130.629 18.07 131.889 19.3 132.789 20.89C133.719 22.45 134.184 24.265 134.184 26.335C134.184 28.435 133.689 30.325 132.699 32.005C131.739 33.655 130.389 34.96 128.649 35.92C126.939 36.85 125.004 37.315 122.844 37.315ZM116.004 26.335C116.004 27.775 116.259 29.035 116.769 30.115C117.309 31.165 118.089 31.99 119.109 32.59C120.159 33.16 121.404 33.445 122.844 33.445C124.314 33.445 125.544 33.16 126.534 32.59C127.554 31.99 128.319 31.165 128.829 30.115C129.369 29.035 129.639 27.775 129.639 26.335C129.639 24.865 129.369 23.62 128.829 22.6C128.319 21.58 127.554 20.8 126.534 20.26C125.544 19.72 124.314 19.45 122.844 19.45C121.404 19.45 120.159 19.72 119.109 20.26C118.089 20.8 117.309 21.58 116.769 22.6C116.259 23.62 116.004 24.865 116.004 26.335ZM84.9488 59.138C84.5348 59.138 84.1821 58.9923 83.8908 58.701C83.5995 58.4097 83.4538 58.057 83.4538 57.643C83.4538 57.2137 83.5995 56.8533 83.8908 56.562C84.1821 56.2707 84.5348 56.125 84.9488 56.125C85.3628 56.125 85.7155 56.2707 86.0068 56.562C86.2981 56.8533 86.4438 57.2137 86.4438 57.643C86.4438 58.057 86.2981 58.4097 86.0068 58.701C85.7155 58.9923 85.3628 59.138 84.9488 59.138ZM84.9488 49.363C84.5348 49.363 84.1821 49.2173 83.8908 48.926C83.5995 48.6347 83.4538 48.282 83.4538 47.868C83.4538 47.4387 83.5995 47.0783 83.8908 46.787C84.1821 46.4957 84.5348 46.35 84.9488 46.35C85.3628 46.35 85.7155 46.4957 86.0068 46.787C86.2981 47.0783 86.4438 47.4387 86.4438 47.868C86.4438 48.282 86.2981 48.6347 86.0068 48.926C85.7155 49.2173 85.3628 49.363 84.9488 49.363ZM88.8786 50.95C88.8786 49.754 88.9706 48.6577 89.1546 47.661C89.3386 46.649 89.6452 45.7827 90.0746 45.062C90.5039 44.326 91.1019 43.7587 91.8686 43.36C92.6352 42.946 93.5936 42.739 94.7436 42.739C95.9089 42.739 96.8672 42.946 97.6186 43.36C98.3699 43.7587 98.9602 44.326 99.3896 45.062C99.8342 45.7827 100.141 46.649 100.31 47.661C100.494 48.6577 100.586 49.754 100.586 50.95C100.586 52.1613 100.494 53.273 100.31 54.285C100.141 55.2817 99.8342 56.148 99.3896 56.884C98.9602 57.6047 98.3699 58.1643 97.6186 58.563C96.8672 58.9617 95.9089 59.161 94.7436 59.161C93.5936 59.161 92.6352 58.9617 91.8686 58.563C91.1019 58.1643 90.5039 57.6047 90.0746 56.884C89.6452 56.148 89.3386 55.2817 89.1546 54.285C88.9706 53.273 88.8786 52.1613 88.8786 50.95ZM98.2626 50.95C98.2626 50.122 98.2242 49.3323 98.1476 48.581C98.0709 47.8297 97.9176 47.1627 97.6876 46.58C97.4729 45.9973 97.1279 45.545 96.6526 45.223C96.1772 44.8857 95.5409 44.717 94.7436 44.717C93.9462 44.717 93.3099 44.8857 92.8346 45.223C92.3592 45.545 92.0066 45.9973 91.7766 46.58C91.5466 47.1627 91.3932 47.8297 91.3166 48.581C91.2552 49.3323 91.2246 50.122 91.2246 50.95C91.2246 51.824 91.2552 52.6367 91.3166 53.388C91.3932 54.1393 91.5466 54.7987 91.7766 55.366C92.0066 55.9333 92.3592 56.378 92.8346 56.7C93.3099 57.022 93.9462 57.183 94.7436 57.183C95.5409 57.183 96.1772 57.022 96.6526 56.7C97.1279 56.378 97.4729 55.9333 97.6876 55.366C97.9176 54.7987 98.0709 54.1393 98.1476 53.388C98.2242 52.6367 98.2626 51.824 98.2626 50.95ZM103.018 50.95C103.018 49.754 103.11 48.6577 103.294 47.661C103.478 46.649 103.785 45.7827 104.214 45.062C104.644 44.326 105.242 43.7587 106.008 43.36C106.775 42.946 107.733 42.739 108.883 42.739C110.049 42.739 111.007 42.946 111.758 43.36C112.51 43.7587 113.1 44.326 113.529 45.062C113.974 45.7827 114.281 46.649 114.449 47.661C114.633 48.6577 114.725 49.754 114.725 50.95C114.725 52.1613 114.633 53.273 114.449 54.285C114.281 55.2817 113.974 56.148 113.529 56.884C113.1 57.6047 112.51 58.1643 111.758 58.563C111.007 58.9617 110.049 59.161 108.883 59.161C107.733 59.161 106.775 58.9617 106.008 58.563C105.242 58.1643 104.644 57.6047 104.214 56.884C103.785 56.148 103.478 55.2817 103.294 54.285C103.11 53.273 103.018 52.1613 103.018 50.95ZM112.402 50.95C112.402 50.122 112.364 49.3323 112.287 48.581C112.211 47.8297 112.057 47.1627 111.827 46.58C111.613 45.9973 111.268 45.545 110.792 45.223C110.317 44.8857 109.681 44.717 108.883 44.717C108.086 44.717 107.45 44.8857 106.974 45.223C106.499 45.545 106.146 45.9973 105.916 46.58C105.686 47.1627 105.533 47.8297 105.456 48.581C105.395 49.3323 105.364 50.122 105.364 50.95C105.364 51.824 105.395 52.6367 105.456 53.388C105.533 54.1393 105.686 54.7987 105.916 55.366C106.146 55.9333 106.499 56.378 106.974 56.7C107.45 57.022 108.086 57.183 108.883 57.183C109.681 57.183 110.317 57.022 110.792 56.7C111.268 56.378 111.613 55.9333 111.827 55.366C112.057 54.7987 112.211 54.1393 112.287 53.388C112.364 52.6367 112.402 51.824 112.402 50.95ZM122.448 54.848C122.944 54.848 123.344 54.772 123.648 54.62C123.96 54.468 124.184 54.256 124.32 53.984C124.464 53.712 124.536 53.4 124.536 53.048C124.536 52.48 124.372 52.036 124.044 51.716C123.724 51.396 123.192 51.236 122.448 51.236H120.36V54.848H122.448ZM125.256 53.048C125.256 53.392 125.2 53.716 125.088 54.02C124.976 54.316 124.804 54.576 124.572 54.8C124.34 55.016 124.048 55.188 123.696 55.316C123.344 55.436 122.928 55.496 122.448 55.496H120.36V59H119.628V50.6H122.448C123.112 50.6 123.648 50.708 124.056 50.924C124.464 51.14 124.764 51.432 124.956 51.8C125.156 52.168 125.256 52.584 125.256 53.048ZM127.327 59H126.595V50.6H127.387L130.639 58.004L133.879 50.6H134.671V59H133.939V52.076L130.903 59H130.363L127.327 52.076V59Z" fill="#0A214A"/>
<path d="M63.8008 33.4137H74.7088V35.6817H63.8008V33.4137Z" fill="#0A214A"/>
<path d="M3.07802 22.2534C3.07802 19.9134 3.25802 17.7684 3.61802 15.8184C3.97802 13.8384 4.57802 12.1434 5.41802 10.7334C6.25802 9.29342 7.42802 8.18342 8.92802 7.40342C10.428 6.59342 12.303 6.18842 14.553 6.18842C16.833 6.18842 18.708 6.59342 20.178 7.40342C21.648 8.18342 22.803 9.29342 23.643 10.7334C24.513 12.1434 25.113 13.8384 25.443 15.8184C25.803 17.7684 25.983 19.9134 25.983 22.2534C25.983 24.6234 25.803 26.7984 25.443 28.7784C25.113 30.7284 24.513 32.4234 23.643 33.8634C22.803 35.2734 21.648 36.3684 20.178 37.1484C18.708 37.9284 16.833 38.3184 14.553 38.3184C12.303 38.3184 10.428 37.9284 8.92802 37.1484C7.42802 36.3684 6.25802 35.2734 5.41802 33.8634C4.57802 32.4234 3.97802 30.7284 3.61802 28.7784C3.25802 26.7984 3.07802 24.6234 3.07802 22.2534ZM21.438 22.2534C21.438 20.6334 21.363 19.0884 21.213 17.6184C21.063 16.1484 20.763 14.8434 20.313 13.7034C19.893 12.5634 19.218 11.6784 18.288 11.0484C17.358 10.3884 16.113 10.0584 14.553 10.0584C12.993 10.0584 11.748 10.3884 10.818 11.0484C9.88802 11.6784 9.19802 12.5634 8.74802 13.7034C8.29802 14.8434 7.99802 16.1484 7.84802 17.6184C7.72802 19.0884 7.66802 20.6334 7.66802 22.2534C7.66802 23.9634 7.72802 25.5534 7.84802 27.0234C7.99802 28.4934 8.29802 29.7834 8.74802 30.8934C9.19802 32.0034 9.88802 32.8734 10.818 33.5034C11.748 34.1334 12.993 34.4484 14.553 34.4484C16.113 34.4484 17.358 34.1334 18.288 33.5034C19.218 32.8734 19.893 32.0034 20.313 30.8934C20.763 29.7834 21.063 28.4934 21.213 27.0234C21.363 25.5534 21.438 23.9634 21.438 22.2534ZM51.1275 6.50342V10.2834H35.9175V19.6884C36.5475 18.8184 37.4625 18.1134 38.6625 17.5734C39.8625 17.0334 41.2275 16.7634 42.7575 16.7634C44.7075 16.7634 46.3425 17.0934 47.6625 17.7534C48.9825 18.4134 50.0475 19.2684 50.8575 20.3184C51.6975 21.3684 52.2975 22.5084 52.6575 23.7384C53.0475 24.9384 53.2425 26.0934 53.2425 27.2034C53.2425 29.2434 52.8075 31.1034 51.9375 32.7834C51.0975 34.4634 49.8375 35.8134 48.1575 36.8334C46.4775 37.8234 44.4375 38.3184 42.0375 38.3184C39.8775 38.3184 37.9875 37.9434 36.3675 37.1934C34.7775 36.4134 33.5025 35.3634 32.5425 34.0434C31.6125 32.6934 31.0125 31.1634 30.7425 29.4534H35.1075C35.4975 31.0134 36.2925 32.2434 37.4925 33.1434C38.7225 34.0134 40.2525 34.4484 42.0825 34.4484C43.5825 34.4484 44.8275 34.1484 45.8175 33.5484C46.8075 32.9484 47.5275 32.1234 47.9775 31.0734C48.4575 29.9934 48.6975 28.7334 48.6975 27.2934C48.6975 25.1934 48.1275 23.5584 46.9875 22.3884C45.8475 21.2184 44.2275 20.6334 42.1275 20.6334C40.5375 20.6334 39.1875 21.0084 38.0775 21.7584C36.9675 22.5084 36.1725 23.5284 35.6925 24.8184H31.4625V6.50342H51.1275ZM4.17899 60.1414C3.76499 60.1414 3.41233 59.9958 3.12099 59.7044C2.82966 59.4131 2.68399 59.0604 2.68399 58.6464C2.68399 58.2171 2.82966 57.8568 3.12099 57.5654C3.41233 57.2741 3.76499 57.1284 4.17899 57.1284C4.59299 57.1284 4.94566 57.2741 5.23699 57.5654C5.52833 57.8568 5.67399 58.2171 5.67399 58.6464C5.67399 59.0604 5.52833 59.4131 5.23699 59.7044C4.94566 59.9958 4.59299 60.1414 4.17899 60.1414ZM4.17899 50.3664C3.76499 50.3664 3.41233 50.2208 3.12099 49.9294C2.82966 49.6381 2.68399 49.2854 2.68399 48.8714C2.68399 48.4421 2.82966 48.0818 3.12099 47.7904C3.41233 47.4991 3.76499 47.3534 4.17899 47.3534C4.59299 47.3534 4.94566 47.4991 5.23699 47.7904C5.52833 48.0818 5.67399 48.4421 5.67399 48.8714C5.67399 49.2854 5.52833 49.6381 5.23699 49.9294C4.94566 50.2208 4.59299 50.3664 4.17899 50.3664ZM8.10876 51.9534C8.10876 50.7574 8.20076 49.6611 8.38476 48.6644C8.56876 47.6524 8.87543 46.7861 9.30476 46.0654C9.73409 45.3294 10.3321 44.7621 11.0988 44.3634C11.8654 43.9494 12.8238 43.7424 13.9738 43.7424C15.1391 43.7424 16.0974 43.9494 16.8488 44.3634C17.6001 44.7621 18.1904 45.3294 18.6198 46.0654C19.0644 46.7861 19.3711 47.6524 19.5398 48.6644C19.7238 49.6611 19.8158 50.7574 19.8158 51.9534C19.8158 53.1648 19.7238 54.2764 19.5398 55.2884C19.3711 56.2851 19.0644 57.1514 18.6198 57.8874C18.1904 58.6081 17.6001 59.1678 16.8488 59.5664C16.0974 59.9651 15.1391 60.1644 13.9738 60.1644C12.8238 60.1644 11.8654 59.9651 11.0988 59.5664C10.3321 59.1678 9.73409 58.6081 9.30476 57.8874C8.87543 57.1514 8.56876 56.2851 8.38476 55.2884C8.20076 54.2764 8.10876 53.1648 8.10876 51.9534ZM17.4928 51.9534C17.4928 51.1254 17.4544 50.3358 17.3778 49.5844C17.3011 48.8331 17.1478 48.1661 16.9178 47.5834C16.7031 47.0008 16.3581 46.5484 15.8828 46.2264C15.4074 45.8891 14.7711 45.7204 13.9738 45.7204C13.1764 45.7204 12.5401 45.8891 12.0648 46.2264C11.5894 46.5484 11.2368 47.0008 11.0068 47.5834C10.7768 48.1661 10.6234 48.8331 10.5468 49.5844C10.4854 50.3358 10.4548 51.1254 10.4548 51.9534C10.4548 52.8274 10.4854 53.6401 10.5468 54.3914C10.6234 55.1428 10.7768 55.8021 11.0068 56.3694C11.2368 56.9368 11.5894 57.3814 12.0648 57.7034C12.5401 58.0254 13.1764 58.1864 13.9738 58.1864C14.7711 58.1864 15.4074 58.0254 15.8828 57.7034C16.3581 57.3814 16.7031 56.9368 16.9178 56.3694C17.1478 55.8021 17.3011 55.1428 17.3778 54.3914C17.4544 53.6401 17.4928 52.8274 17.4928 51.9534ZM22.2484 51.9534C22.2484 50.7574 22.3404 49.6611 22.5244 48.6644C22.7084 47.6524 23.015 46.7861 23.4444 46.0654C23.8737 45.3294 24.4717 44.7621 25.2384 44.3634C26.005 43.9494 26.9634 43.7424 28.1134 43.7424C29.2787 43.7424 30.237 43.9494 30.9884 44.3634C31.7397 44.7621 32.33 45.3294 32.7594 46.0654C33.204 46.7861 33.5107 47.6524 33.6794 48.6644C33.8634 49.6611 33.9554 50.7574 33.9554 51.9534C33.9554 53.1648 33.8634 54.2764 33.6794 55.2884C33.5107 56.2851 33.204 57.1514 32.7594 57.8874C32.33 58.6081 31.7397 59.1678 30.9884 59.5664C30.237 59.9651 29.2787 60.1644 28.1134 60.1644C26.9634 60.1644 26.005 59.9651 25.2384 59.5664C24.4717 59.1678 23.8737 58.6081 23.4444 57.8874C23.015 57.1514 22.7084 56.2851 22.5244 55.2884C22.3404 54.2764 22.2484 53.1648 22.2484 51.9534ZM31.6324 51.9534C31.6324 51.1254 31.594 50.3358 31.5174 49.5844C31.4407 48.8331 31.2874 48.1661 31.0574 47.5834C30.8427 47.0008 30.4977 46.5484 30.0224 46.2264C29.547 45.8891 28.9107 45.7204 28.1134 45.7204C27.316 45.7204 26.6797 45.8891 26.2044 46.2264C25.729 46.5484 25.3764 47.0008 25.1464 47.5834C24.9164 48.1661 24.763 48.8331 24.6864 49.5844C24.625 50.3358 24.5944 51.1254 24.5944 51.9534C24.5944 52.8274 24.625 53.6401 24.6864 54.3914C24.763 55.1428 24.9164 55.8021 25.1464 56.3694C25.3764 56.9368 25.729 57.3814 26.2044 57.7034C26.6797 58.0254 27.316 58.1864 28.1134 58.1864C28.9107 58.1864 29.547 58.0254 30.0224 57.7034C30.4977 57.3814 30.8427 56.9368 31.0574 56.3694C31.2874 55.8021 31.4407 55.1428 31.5174 54.3914C31.594 53.6401 31.6324 52.8274 31.6324 51.9534ZM41.678 55.8514C42.174 55.8514 42.574 55.7754 42.878 55.6234C43.19 55.4714 43.414 55.2594 43.55 54.9874C43.694 54.7154 43.766 54.4034 43.766 54.0514C43.766 53.4834 43.602 53.0394 43.274 52.7194C42.954 52.3994 42.422 52.2394 41.678 52.2394H39.59V55.8514H41.678ZM44.486 54.0514C44.486 54.3954 44.43 54.7194 44.318 55.0234C44.206 55.3194 44.034 55.5794 43.802 55.8034C43.57 56.0194 43.278 56.1914 42.926 56.3194C42.574 56.4394 42.158 56.4994 41.678 56.4994H39.59V60.0034H38.858V51.6034H41.678C42.342 51.6034 42.878 51.7114 43.286 51.9274C43.694 52.1434 43.994 52.4354 44.186 52.8034C44.386 53.1714 44.486 53.5874 44.486 54.0514ZM46.557 60.0034H45.825V51.6034H46.617L49.869 59.0074L53.109 51.6034H53.901V60.0034H53.169V53.0794L50.133 60.0034H49.593L46.557 53.0794V60.0034Z" fill="#0A214A"/>
</svg>
