<svg width="137" height="64" viewBox="0 0 137 64" fill="none" xmlns="http://www.w3.org/2000/svg">
<path d="M94.7129 9.28H90.4379V5.5H99.2129V37H94.7129V9.28ZM121.013 9.28H116.738V5.5H125.513V37H121.013V9.28ZM85.0759 59.138C84.6619 59.138 84.3092 58.9923 84.0179 58.701C83.7265 58.4097 83.5809 58.057 83.5809 57.643C83.5809 57.2137 83.7265 56.8533 84.0179 56.562C84.3092 56.2707 84.6619 56.125 85.0759 56.125C85.4899 56.125 85.8425 56.2707 86.1339 56.562C86.4252 56.8533 86.5709 57.2137 86.5709 57.643C86.5709 58.057 86.4252 58.4097 86.1339 58.701C85.8425 58.9923 85.4899 59.138 85.0759 59.138ZM85.0759 49.363C84.6619 49.363 84.3092 49.2173 84.0179 48.926C83.7265 48.6347 83.5809 48.282 83.5809 47.868C83.5809 47.4387 83.7265 47.0783 84.0179 46.787C84.3092 46.4957 84.6619 46.35 85.0759 46.35C85.4899 46.35 85.8425 46.4957 86.1339 46.787C86.4252 47.0783 86.5709 47.4387 86.5709 47.868C86.5709 48.282 86.4252 48.6347 86.1339 48.926C85.8425 49.2173 85.4899 49.363 85.0759 49.363ZM89.0056 47.27C89.067 46.304 89.3353 45.4837 89.8106 44.809C90.3013 44.1343 90.9453 43.6207 91.7426 43.268C92.54 42.9153 93.4523 42.739 94.4796 42.739C95.5683 42.739 96.4883 42.946 97.2396 43.36C97.991 43.774 98.5583 44.326 98.9416 45.016C99.3403 45.6907 99.5396 46.4267 99.5396 47.224C99.5396 47.8067 99.417 48.3433 99.1716 48.834C98.9263 49.3093 98.589 49.7157 98.1596 50.053C97.7456 50.3903 97.2703 50.628 96.7336 50.766V50.881C97.347 51.0343 97.8836 51.2797 98.3436 51.617C98.819 51.939 99.187 52.3607 99.4476 52.882C99.7083 53.388 99.8386 54.0013 99.8386 54.722C99.8386 55.596 99.6393 56.3703 99.2406 57.045C98.842 57.7043 98.244 58.2257 97.4466 58.609C96.6646 58.977 95.691 59.161 94.5256 59.161C93.4063 59.161 92.425 58.9923 91.5816 58.655C90.7383 58.3177 90.0713 57.7887 89.5806 57.068C89.1053 56.3473 88.837 55.412 88.7756 54.262H90.9836C91.0603 55.2127 91.3746 55.941 91.9266 56.447C92.4786 56.9377 93.345 57.183 94.5256 57.183C95.2156 57.183 95.783 57.0757 96.2276 56.861C96.6723 56.6463 96.9943 56.3473 97.1936 55.964C97.4083 55.5653 97.5156 55.09 97.5156 54.538C97.5156 53.4953 97.1553 52.79 96.4346 52.422C95.7293 52.0387 94.656 51.847 93.2146 51.847H92.6396V49.892H93.2376C94.1116 49.8767 94.84 49.7847 95.4226 49.616C96.0206 49.4473 96.4653 49.1943 96.7566 48.857C97.0633 48.5043 97.2166 48.0443 97.2166 47.477C97.2166 46.7103 96.9866 46.0587 96.5266 45.522C96.0666 44.9853 95.3613 44.717 94.4106 44.717C93.7666 44.717 93.2223 44.832 92.7776 45.062C92.333 45.2767 91.9803 45.5757 91.7196 45.959C91.459 46.3423 91.298 46.7793 91.2366 47.27H89.0056ZM102.269 50.95C102.269 49.754 102.361 48.6577 102.545 47.661C102.729 46.649 103.036 45.7827 103.465 45.062C103.895 44.326 104.493 43.7587 105.259 43.36C106.026 42.946 106.984 42.739 108.134 42.739C109.3 42.739 110.258 42.946 111.009 43.36C111.761 43.7587 112.351 44.326 112.78 45.062C113.225 45.7827 113.532 46.649 113.7 47.661C113.884 48.6577 113.976 49.754 113.976 50.95C113.976 52.1613 113.884 53.273 113.7 54.285C113.532 55.2817 113.225 56.148 112.78 56.884C112.351 57.6047 111.761 58.1643 111.009 58.563C110.258 58.9617 109.3 59.161 108.134 59.161C106.984 59.161 106.026 58.9617 105.259 58.563C104.493 58.1643 103.895 57.6047 103.465 56.884C103.036 56.148 102.729 55.2817 102.545 54.285C102.361 53.273 102.269 52.1613 102.269 50.95ZM111.653 50.95C111.653 50.122 111.615 49.3323 111.538 48.581C111.462 47.8297 111.308 47.1627 111.078 46.58C110.864 45.9973 110.519 45.545 110.043 45.223C109.568 44.8857 108.932 44.717 108.134 44.717C107.337 44.717 106.701 44.8857 106.225 45.223C105.75 45.545 105.397 45.9973 105.167 46.58C104.937 47.1627 104.784 47.8297 104.707 48.581C104.646 49.3323 104.615 50.122 104.615 50.95C104.615 51.824 104.646 52.6367 104.707 53.388C104.784 54.1393 104.937 54.7987 105.167 55.366C105.397 55.9333 105.75 56.378 106.225 56.7C106.701 57.022 107.337 57.183 108.134 57.183C108.932 57.183 109.568 57.022 110.043 56.7C110.519 56.378 110.864 55.9333 111.078 55.366C111.308 54.7987 111.462 54.1393 111.538 53.388C111.615 52.6367 111.653 51.824 111.653 50.95ZM121.951 51.236H121.555L118.675 59H117.931L121.051 50.6H122.443L125.551 59H124.819L121.951 51.236ZM119.311 56.048H124.207V56.684H119.311V56.048ZM127.199 59H126.467V50.6H127.259L130.511 58.004L133.751 50.6H134.543V59H133.811V52.076L130.775 59H130.235L127.199 52.076V59Z" fill="#0A214A"/>
<path d="M63.8006 33.4137H74.7086V35.6817H63.8006V33.4137Z" fill="#0A214A"/>
<path d="M10.1113 10.2834H5.83626V6.50342H14.6113V38.0034H10.1113V10.2834ZM26.4216 22.2534C26.4216 19.9134 26.6016 17.7684 26.9616 15.8184C27.3216 13.8384 27.9216 12.1434 28.7616 10.7334C29.6016 9.29342 30.7716 8.18342 32.2716 7.40342C33.7716 6.59342 35.6466 6.18842 37.8966 6.18842C40.1766 6.18842 42.0516 6.59342 43.5216 7.40342C44.9916 8.18342 46.1466 9.29342 46.9866 10.7334C47.8566 12.1434 48.4566 13.8384 48.7866 15.8184C49.1466 17.7684 49.3266 19.9134 49.3266 22.2534C49.3266 24.6234 49.1466 26.7984 48.7866 28.7784C48.4566 30.7284 47.8566 32.4234 46.9866 33.8634C46.1466 35.2734 44.9916 36.3684 43.5216 37.1484C42.0516 37.9284 40.1766 38.3184 37.8966 38.3184C35.6466 38.3184 33.7716 37.9284 32.2716 37.1484C30.7716 36.3684 29.6016 35.2734 28.7616 33.8634C27.9216 32.4234 27.3216 30.7284 26.9616 28.7784C26.6016 26.7984 26.4216 24.6234 26.4216 22.2534ZM44.7816 22.2534C44.7816 20.6334 44.7066 19.0884 44.5566 17.6184C44.4066 16.1484 44.1066 14.8434 43.6566 13.7034C43.2366 12.5634 42.5616 11.6784 41.6316 11.0484C40.7016 10.3884 39.4566 10.0584 37.8966 10.0584C36.3366 10.0584 35.0916 10.3884 34.1616 11.0484C33.2316 11.6784 32.5416 12.5634 32.0916 13.7034C31.6416 14.8434 31.3416 16.1484 31.1916 17.6184C31.0716 19.0884 31.0116 20.6334 31.0116 22.2534C31.0116 23.9634 31.0716 25.5534 31.1916 27.0234C31.3416 28.4934 31.6416 29.7834 32.0916 30.8934C32.5416 32.0034 33.2316 32.8734 34.1616 33.5034C35.0916 34.1334 36.3366 34.4484 37.8966 34.4484C39.4566 34.4484 40.7016 34.1334 41.6316 33.5034C42.5616 32.8734 43.2366 32.0034 43.6566 30.8934C44.1066 29.7834 44.4066 28.4934 44.5566 27.0234C44.7066 25.5534 44.7816 23.9634 44.7816 22.2534ZM3.86832 60.1414C3.45432 60.1414 3.10166 59.9958 2.81032 59.7044C2.51899 59.4131 2.37332 59.0604 2.37332 58.6464C2.37332 58.2171 2.51899 57.8568 2.81032 57.5654C3.10166 57.2741 3.45432 57.1284 3.86832 57.1284C4.28232 57.1284 4.63499 57.2741 4.92632 57.5654C5.21766 57.8568 5.36332 58.2171 5.36332 58.6464C5.36332 59.0604 5.21766 59.4131 4.92632 59.7044C4.63499 59.9958 4.28232 60.1414 3.86832 60.1414ZM3.86832 50.3664C3.45432 50.3664 3.10166 50.2208 2.81032 49.9294C2.51899 49.6381 2.37332 49.2854 2.37332 48.8714C2.37332 48.4421 2.51899 48.0818 2.81032 47.7904C3.10166 47.4991 3.45432 47.3534 3.86832 47.3534C4.28232 47.3534 4.63499 47.4991 4.92632 47.7904C5.21766 48.0818 5.36332 48.4421 5.36332 48.8714C5.36332 49.2854 5.21766 49.6381 4.92632 49.9294C4.63499 50.2208 4.28232 50.3664 3.86832 50.3664ZM7.79809 51.9534C7.79809 50.7574 7.89009 49.6611 8.07409 48.6644C8.25809 47.6524 8.56476 46.7861 8.99409 46.0654C9.42342 45.3294 10.0214 44.7621 10.7881 44.3634C11.5548 43.9494 12.5131 43.7424 13.6631 43.7424C14.8284 43.7424 15.7868 43.9494 16.5381 44.3634C17.2894 44.7621 17.8798 45.3294 18.3091 46.0654C18.7538 46.7861 19.0604 47.6524 19.2291 48.6644C19.4131 49.6611 19.5051 50.7574 19.5051 51.9534C19.5051 53.1648 19.4131 54.2764 19.2291 55.2884C19.0604 56.2851 18.7538 57.1514 18.3091 57.8874C17.8798 58.6081 17.2894 59.1678 16.5381 59.5664C15.7868 59.9651 14.8284 60.1644 13.6631 60.1644C12.5131 60.1644 11.5548 59.9651 10.7881 59.5664C10.0214 59.1678 9.42342 58.6081 8.99409 57.8874C8.56476 57.1514 8.25809 56.2851 8.07409 55.2884C7.89009 54.2764 7.79809 53.1648 7.79809 51.9534ZM17.1821 51.9534C17.1821 51.1254 17.1438 50.3358 17.0671 49.5844C16.9904 48.8331 16.8371 48.1661 16.6071 47.5834C16.3924 47.0008 16.0474 46.5484 15.5721 46.2264C15.0968 45.8891 14.4604 45.7204 13.6631 45.7204C12.8658 45.7204 12.2294 45.8891 11.7541 46.2264C11.2788 46.5484 10.9261 47.0008 10.6961 47.5834C10.4661 48.1661 10.3128 48.8331 10.2361 49.5844C10.1748 50.3358 10.1441 51.1254 10.1441 51.9534C10.1441 52.8274 10.1748 53.6401 10.2361 54.3914C10.3128 55.1428 10.4661 55.8021 10.6961 56.3694C10.9261 56.9368 11.2788 57.3814 11.7541 57.7034C12.2294 58.0254 12.8658 58.1864 13.6631 58.1864C14.4604 58.1864 15.0968 58.0254 15.5721 57.7034C16.0474 57.3814 16.3924 56.9368 16.6071 56.3694C16.8371 55.8021 16.9904 55.1428 17.0671 54.3914C17.1438 53.6401 17.1821 52.8274 17.1821 51.9534ZM21.9377 51.9534C21.9377 50.7574 22.0297 49.6611 22.2137 48.6644C22.3977 47.6524 22.7044 46.7861 23.1337 46.0654C23.563 45.3294 24.161 44.7621 24.9277 44.3634C25.6944 43.9494 26.6527 43.7424 27.8027 43.7424C28.968 43.7424 29.9264 43.9494 30.6777 44.3634C31.429 44.7621 32.0194 45.3294 32.4487 46.0654C32.8934 46.7861 33.2 47.6524 33.3687 48.6644C33.5527 49.6611 33.6447 50.7574 33.6447 51.9534C33.6447 53.1648 33.5527 54.2764 33.3687 55.2884C33.2 56.2851 32.8934 57.1514 32.4487 57.8874C32.0194 58.6081 31.429 59.1678 30.6777 59.5664C29.9264 59.9651 28.968 60.1644 27.8027 60.1644C26.6527 60.1644 25.6944 59.9651 24.9277 59.5664C24.161 59.1678 23.563 58.6081 23.1337 57.8874C22.7044 57.1514 22.3977 56.2851 22.2137 55.2884C22.0297 54.2764 21.9377 53.1648 21.9377 51.9534ZM31.3217 51.9534C31.3217 51.1254 31.2834 50.3358 31.2067 49.5844C31.13 48.8331 30.9767 48.1661 30.7467 47.5834C30.532 47.0008 30.187 46.5484 29.7117 46.2264C29.2364 45.8891 28.6 45.7204 27.8027 45.7204C27.0054 45.7204 26.369 45.8891 25.8937 46.2264C25.4184 46.5484 25.0657 47.0008 24.8357 47.5834C24.6057 48.1661 24.4524 48.8331 24.3757 49.5844C24.3144 50.3358 24.2837 51.1254 24.2837 51.9534C24.2837 52.8274 24.3144 53.6401 24.3757 54.3914C24.4524 55.1428 24.6057 55.8021 24.8357 56.3694C25.0657 56.9368 25.4184 57.3814 25.8937 57.7034C26.369 58.0254 27.0054 58.1864 27.8027 58.1864C28.6 58.1864 29.2364 58.0254 29.7117 57.7034C30.187 57.3814 30.532 56.9368 30.7467 56.3694C30.9767 55.8021 31.13 55.1428 31.2067 54.3914C31.2834 53.6401 31.3217 52.8274 31.3217 51.9534ZM41.6193 52.2394H41.2233L38.3433 60.0034H37.5993L40.7193 51.6034H42.1113L45.2193 60.0034H44.4873L41.6193 52.2394ZM38.9793 57.0514H43.8753V57.6874H38.9793V57.0514ZM46.8674 60.0034H46.1354V51.6034H46.9274L50.1794 59.0074L53.4194 51.6034H54.2114V60.0034H53.4794V53.0794L50.4434 60.0034H49.9034L46.8674 53.0794V60.0034Z" fill="#0A214A"/>
</svg>
